<?xml version="1.0" encoding="utf-8"?>
<!-- Generator: Adobe Illustrator 17.0.2, SVG Export Plug-In . SVG Version: 6.00 Build 0)  -->
<!DOCTYPE svg PUBLIC "-//W3C//DTD SVG 1.1//EN" "http://www.w3.org/Graphics/SVG/1.1/DTD/svg11.dtd">
<svg version="1.1" xmlns="http://www.w3.org/2000/svg" xmlns:xlink="http://www.w3.org/1999/xlink" x="0px" y="0px" width="140px"
	 height="140px" viewBox="0 0 140 140" enable-background="new 0 0 140 140" xml:space="preserve">
<g id="BK">
</g>
<g id="Comp">
	<path fill="#DD4814" d="M140,70.001C140,108.659,108.66,140,70.003,140C31.339,140,0,108.659,0,70.001C0,31.34,31.339,0,70.003,0
		C108.661,0,140,31.34,140,70.001z"/>
	<path fill="#FFFFFF" d="M22.403,60.652c-5.163,0-9.35,4.185-9.35,9.349c0,5.161,4.187,9.345,9.35,9.345
		c5.162,0,9.345-4.184,9.345-9.345C31.747,64.838,27.565,60.652,22.403,60.652z"/>
	<path fill="#FFFFFF" d="M89.13,103.13c-4.471,2.583-6.001,8.295-3.421,12.763c2.579,4.47,8.293,6.002,12.761,3.419
		c4.471-2.579,6.003-8.291,3.421-12.762C99.315,102.084,93.597,100.551,89.13,103.13z"/>
	<path fill="#FFFFFF" d="M42.703,70.001c0-9.237,4.587-17.396,11.609-22.337L47.476,36.22c-8.176,5.467-14.26,13.818-16.788,23.6
		c2.949,2.409,4.841,6.073,4.841,10.18c0,4.105-1.892,7.77-4.841,10.178c2.524,9.786,8.608,18.138,16.788,23.603l6.835-11.446
		C47.29,87.396,42.703,79.237,42.703,70.001z"/>
	<path fill="#FFFFFF" d="M70.003,42.7c14.258,0,25.959,10.935,27.187,24.879l13.318-0.195c-0.656-10.295-5.154-19.537-12.064-26.334
		c-3.552,1.343-7.657,1.138-11.205-0.908c-3.555-2.051-5.784-5.511-6.391-9.267c-3.455-0.953-7.09-1.475-10.849-1.475
		c-6.46,0-12.568,1.518-17.991,4.203l6.495,11.636C61.995,43.613,65.893,42.7,70.003,42.7z"/>
	<path fill="#FFFFFF" d="M70.003,97.298c-4.11,0-8.008-0.913-11.501-2.539l-6.495,11.636c5.424,2.688,11.532,4.205,17.996,4.205
		c3.756,0,7.391-0.522,10.845-1.478c0.61-3.756,2.837-7.212,6.391-9.267c3.551-2.048,7.653-2.25,11.205-0.908
		c6.91-6.797,11.408-16.038,12.064-26.333L97.187,72.42C95.962,86.368,84.261,97.298,70.003,97.298z"/>
	<path fill="#FFFFFF" d="M89.126,36.866c4.471,2.581,10.184,1.052,12.763-3.417c2.583-4.47,1.051-10.184-3.419-12.766
		c-4.468-2.579-10.182-1.046-12.764,3.424C83.129,28.574,84.659,34.287,89.126,36.866z"/>
</g>
<g id="Grid" display="none">
	<g id="Grid_1_" display="inline">
	</g>
</g>
<g id="Labels">
</g>
</svg>
