<?xml version="1.0" encoding="utf-8"?>
<!-- Generator: Adobe Illustrator 17.0.2, SVG Export Plug-In . SVG Version: 6.00 Build 0)  -->
<!DOCTYPE svg PUBLIC "-//W3C//DTD SVG 1.1//EN" "http://www.w3.org/Graphics/SVG/1.1/DTD/svg11.dtd">
<svg version="1.1" xmlns="http://www.w3.org/2000/svg" xmlns:xlink="http://www.w3.org/1999/xlink" x="0px" y="0px" width="60px"
	 height="60px" viewBox="0 0 60 60" enable-background="new 0 0 60 60" xml:space="preserve">
<g id="BK">
</g>
<g id="Comp">
	<path fill="#5E2750" d="M60,30c0,16.57-13.431,30-30,30C13.43,60,0,46.57,0,30S13.43,0,30,0C46.569,0,60,13.43,60,30z
		 M52.498,29.984c0-4.485-3.497-8.15-7.914-8.421c1.974-3.96,0.549-8.822-3.334-11.064C37.365,8.257,32.443,9.454,30,13.143
		c-2.442-3.689-7.365-4.886-11.248-2.645c-3.884,2.243-5.309,7.106-3.335,11.065c-4.416,0.271-7.914,3.935-7.914,8.421
		c0,4.659,3.778,8.436,8.438,8.436h28.12C48.719,38.419,52.498,34.642,52.498,29.984z"/>
</g>
<g id="Grid" display="none">
	<g id="Grid_1_" display="inline">
	</g>
</g>
<g id="Labels">
</g>
</svg>
