<?xml version="1.0" encoding="utf-8"?>
<!-- Generator: Adobe Illustrator 17.0.2, SVG Export Plug-In . SVG Version: 6.00 Build 0)  -->
<!DOCTYPE svg PUBLIC "-//W3C//DTD SVG 1.1//EN" "http://www.w3.org/Graphics/SVG/1.1/DTD/svg11.dtd">
<svg version="1.1" id="Layer_1" xmlns="http://www.w3.org/2000/svg" xmlns:xlink="http://www.w3.org/1999/xlink" x="0px" y="0px"
	 width="60px" height="60px" viewBox="0 0 60 60" enable-background="new 0 0 60 60" xml:space="preserve">
<g id="BK">
</g>
<g id="Comp">
	<path fill-rule="evenodd" clip-rule="evenodd" fill="#5E2750" d="M60,30c0,16.569-13.431,30-30,30S0,46.569,0,30S13.431,0,30,0
		S60,13.431,60,30z M41.4,44.667H18.6C11,44.667,11,41.4,11,30s0-14.667,7.6-14.667h22.8C49,15.333,49,18.6,49,30
		S49,44.667,41.4,44.667z M47.733,26.912c-0.037-0.35-0.35-0.604-0.699-0.567s-0.604,0.35-0.567,0.699v5.911
		c0,0.006,0,0.012,0,0.018c0.005,0.35,0.293,0.629,0.642,0.624c0.35-0.005,0.629-0.293,0.624-0.642v-5.911
		C47.738,27.001,47.738,26.956,47.733,26.912L47.733,26.912z M40.133,17.867h-20c-5.067,0-5.067,2-5.067,12.133
		s0,12.133,5.067,12.133h20c5.067,0,5.067-2,5.067-12.133S45.2,17.867,40.133,17.867z"/>
</g>
<g id="Grid" display="none">
	<g id="Grid_1_" display="inline">
	</g>
</g>
<g id="Labels">
</g>
</svg>
