<?xml version="1.0" encoding="utf-8"?>
<!-- Generator: Adobe Illustrator 17.0.2, SVG Export Plug-In . SVG Version: 6.00 Build 0)  -->
<!DOCTYPE svg PUBLIC "-//W3C//DTD SVG 1.1//EN" "http://www.w3.org/Graphics/SVG/1.1/DTD/svg11.dtd">
<svg version="1.1" id="Layer_1" xmlns="http://www.w3.org/2000/svg" xmlns:xlink="http://www.w3.org/1999/xlink" x="0px" y="0px"
	 width="60px" height="60px" viewBox="0 0 60 60" enable-background="new 0 0 60 60" xml:space="preserve">
<g id="BK">
</g>
<g id="Comp">
	<path fill-rule="evenodd" clip-rule="evenodd" fill="#5E2750" d="M60,30c0,16.569-13.431,30-30,30S0,46.569,0,30S13.431,0,30,0
		S60,13.431,60,30z M42.667,18.6v22.8C42.667,49,41.4,49,30,49s-12.667,0-12.667-7.6V18.6C17.333,11,18.6,11,30,11
		S42.667,11,42.667,18.6z M26.912,12.267c-0.35,0.037-0.604,0.35-0.567,0.699s0.35,0.604,0.699,0.567h5.911c0.006,0,0.012,0,0.018,0
		c0.35-0.005,0.629-0.293,0.624-0.642c-0.005-0.35-0.293-0.629-0.642-0.624h-5.911C27.001,12.262,26.956,12.262,26.912,12.267
		L26.912,12.267z M19.867,19.867v19c0,5.067,0,5.067,10.133,5.067s10.133,0,10.133-5.067v-19c0-5.067,0-5.067-10.133-5.067
		S19.867,14.8,19.867,19.867z"/>
</g>
<g id="Grid" display="none">
	<g id="Grid_1_" display="inline">
	</g>
</g>
<g id="Labels">
</g>
</svg>
