<?xml version="1.0" encoding="utf-8"?>
<!-- Generator: Adobe Illustrator 17.0.2, SVG Export Plug-In . SVG Version: 6.00 Build 0)  -->
<!DOCTYPE svg PUBLIC "-//W3C//DTD SVG 1.1//EN" "http://www.w3.org/Graphics/SVG/1.1/DTD/svg11.dtd">
<svg version="1.1" xmlns="http://www.w3.org/2000/svg" xmlns:xlink="http://www.w3.org/1999/xlink" x="0px" y="0px" width="60px"
	 height="59.999px" viewBox="0 0 60 59.999" enable-background="new 0 0 60 59.999" xml:space="preserve">
<g id="BK">
</g>
<g id="Comp">
	<path fill="#5E2750" d="M44.998,4.025C30.653-4.259,12.308,0.655,4.024,15c-8.284,14.349-3.369,32.695,10.98,40.976
		c14.346,8.282,32.691,3.366,40.973-10.979C64.259,30.648,59.343,12.306,44.998,4.025z M41.249,43.5
		c0,2.485-2.012,4.499-4.499,4.499H23.252c-2.488,0-4.502-2.014-4.502-4.499V16.499c0-2.484,2.013-4.499,4.502-4.499H36.75
		c2.487,0,4.499,2.016,4.499,4.499L41.249,43.5L41.249,43.5z M34.986,22.686h-9.97c-0.975,0-1.764-0.756-1.764-1.688
		c0-0.93,0.789-1.688,1.764-1.688h9.97c0.972,0,1.764,0.758,1.764,1.688C36.75,21.93,35.958,22.686,34.986,22.686L34.986,22.686z
		 M34.986,18.187h-9.97c-0.975,0-1.764-0.755-1.764-1.688c0-0.932,0.789-1.688,1.764-1.688h9.97c0.972,0,1.764,0.756,1.764,1.688
		C36.75,17.432,35.958,18.187,34.986,18.187L34.986,18.187z M34.986,27.186h-9.97c-0.975,0-1.764-0.755-1.764-1.686
		c0-0.932,0.789-1.687,1.764-1.687h9.97c0.972,0,1.764,0.755,1.764,1.687C36.75,26.432,35.958,27.186,34.986,27.186L34.986,27.186z
		 M27.748,39c0,1.242-1.006,2.248-2.249,2.248c-1.24,0-2.246-1.006-2.246-2.248c0-1.242,1.006-2.251,2.246-2.251
		C26.742,36.749,27.748,37.759,27.748,39z"/>
</g>
<g id="Grid" display="none">
	<g id="Grid_1_" display="inline">
	</g>
</g>
<g id="Labels">
</g>
</svg>
