<?xml version="1.0" encoding="utf-8"?>
<!-- Generator: Adobe Illustrator 18.0.0, SVG Export Plug-In . SVG Version: 6.00 Build 0)  -->
<!DOCTYPE svg PUBLIC "-//W3C//DTD SVG 1.1//EN" "http://www.w3.org/Graphics/SVG/1.1/DTD/svg11.dtd">
<svg version="1.1" id="Layer_1" xmlns="http://www.w3.org/2000/svg" xmlns:xlink="http://www.w3.org/1999/xlink" x="0px" y="0px"
	 viewBox="0 0 399.7 660.6" enable-background="new 0 0 399.7 660.6" xml:space="preserve">
<path opacity="0.4" fill="#010202" d="M359.2,659.7c-0.1-0.5,0.3-1,0.9-1.1l0,0c0.5-0.1,1,0.3,1.1,0.9l0,0c0.1,0.5-0.3,1-0.9,1.1
	l0,0c0,0-0.1,0-0.1,0l0,0C359.7,660.6,359.2,660.2,359.2,659.7z"/>
<path opacity="0.4" fill="#010202" d="M358,649.8c-0.1-0.6,0.3-1,0.9-1.1l0,0c0.5-0.1,1,0.3,1.1,0.9l0,0c0.1,0.6-0.3,1.1-0.9,1.1
	l0,0c0,0-0.1,0-0.1,0l0,0C358.5,650.7,358.1,650.3,358,649.8z"/>
<path opacity="0.4" fill="#010202" d="M356.7,639.9c-0.1-0.6,0.3-1.1,0.9-1.1l0,0c0.5-0.1,1,0.3,1.1,0.9l0,0c0.1,0.5-0.3,1-0.9,1.1
	l0,0c0,0-0.1,0-0.1,0l0,0C357.2,640.8,356.8,640.4,356.7,639.9z"/>
<path opacity="0.4" fill="#010202" d="M355.3,630L355.3,630c-0.1-0.5,0.3-1,0.8-1.1l0,0c0.6-0.1,1.1,0.3,1.1,0.8l0,0
	c0.1,0.5-0.3,1-0.9,1.1l0,0c0,0-0.1,0-0.1,0l0,0C355.8,630.9,355.4,630.5,355.3,630z"/>
<path opacity="0.4" fill="#010202" d="M353.9,620.1c-0.1-0.5,0.3-1.1,0.8-1.1l0,0c0.5-0.1,1,0.3,1.1,0.8l0,0l0,0l0,0
	c0.1,0.5-0.3,1.1-0.8,1.1l0,0c0,0-0.1,0-0.2,0l0,0C354.4,621,353.9,620.6,353.9,620.1z"/>
<path opacity="0.4" fill="#010202" d="M352.3,610.3c-0.1-0.5,0.3-1.1,0.8-1.1l0,0c0.5-0.1,1.1,0.3,1.1,0.8l0,0
	c0.1,0.5-0.3,1.1-0.8,1.2l0,0c0,0-0.1,0-0.2,0l0,0C352.8,611.1,352.4,610.7,352.3,610.3z"/>
<path opacity="0.4" fill="#010202" d="M350.6,600.4c-0.1-0.5,0.3-1.1,0.8-1.2l0,0c0.5-0.1,1.1,0.3,1.2,0.8l0,0
	c0.1,0.5-0.3,1.1-0.8,1.2l0,0c-0.1,0-0.1,0-0.2,0l0,0C351.1,601.2,350.7,600.9,350.6,600.4z"/>
<path opacity="0.4" fill="#010202" d="M348.8,590.6c-0.1-0.5,0.2-1.1,0.8-1.2l0,0c0.5-0.1,1.1,0.3,1.2,0.8l0,0l0,0l0,0
	c0.1,0.5-0.3,1.1-0.8,1.2l0,0c-0.1,0-0.1,0-0.2,0l0,0C349.3,591.4,348.9,591.1,348.8,590.6z"/>
<path opacity="0.4" fill="#010202" d="M347,580.8c-0.1-0.5,0.2-1.1,0.8-1.2l0,0c0.5-0.1,1.1,0.2,1.2,0.8l0,0
	c0.1,0.5-0.2,1.1-0.8,1.2l0,0c-0.1,0-0.1,0-0.2,0l0,0C347.5,581.6,347.1,581.2,347,580.8z"/>
<path opacity="0.4" fill="#010202" d="M345,571c-0.1-0.5,0.2-1.1,0.8-1.2l0,0c0.5-0.1,1.1,0.2,1.2,0.8l0,0c0.1,0.5-0.2,1.1-0.8,1.2
	l0,0c-0.1,0-0.1,0-0.2,0l0,0C345.5,571.8,345.1,571.4,345,571z"/>
<path opacity="0.4" fill="#010202" d="M342.9,561.2L342.9,561.2c-0.1-0.5,0.2-1.1,0.8-1.2l0,0c0.5-0.1,1.1,0.2,1.2,0.8l0,0l0,0l0,0
	c0.1,0.5-0.2,1.1-0.8,1.2l0,0c-0.1,0-0.1,0-0.2,0l0,0C343.4,562,343,561.7,342.9,561.2z"/>
<path opacity="0.4" fill="#010202" d="M340.8,551.5L340.8,551.5c-0.1-0.5,0.2-1.1,0.8-1.2l0,0c0.5-0.1,1.1,0.2,1.2,0.8l0,0
	c0.1,0.5-0.2,1.1-0.8,1.2l0,0c-0.1,0-0.2,0-0.2,0l0,0C341.3,552.2,340.9,551.9,340.8,551.5z"/>
<path opacity="0.4" fill="#010202" d="M338.5,541.7c-0.1-0.5,0.2-1.1,0.7-1.2l0,0c0.5-0.1,1.1,0.2,1.2,0.7l0,0
	c0.1,0.5-0.2,1.1-0.7,1.2l0,0c-0.1,0-0.2,0-0.2,0l0,0C339,542.5,338.6,542.2,338.5,541.7z"/>
<path opacity="0.4" fill="#010202" d="M336.1,532c-0.1-0.5,0.2-1.1,0.7-1.2l0,0c0.5-0.1,1.1,0.2,1.2,0.7l0,0
	c0.1,0.5-0.2,1.1-0.7,1.2l0,0c-0.1,0-0.2,0-0.2,0l0,0C336.6,532.8,336.2,532.5,336.1,532z"/>
<path opacity="0.4" fill="#010202" d="M333.7,522.3c-0.1-0.5,0.2-1.1,0.7-1.2l0,0c0.5-0.1,1.1,0.2,1.2,0.7l0,0
	c0.1,0.5-0.2,1.1-0.7,1.2l0,0c-0.1,0-0.2,0-0.2,0l0,0C334.2,523.1,333.8,522.8,333.7,522.3z"/>
<path opacity="0.4" fill="#010202" d="M331.1,512.7L331.1,512.7c-0.2-0.5,0.2-1.1,0.7-1.2l0,0c0.5-0.1,1.1,0.2,1.2,0.7l0,0
	c0.1,0.5-0.2,1.1-0.7,1.2l0,0c-0.1,0-0.2,0-0.2,0l0,0C331.6,513.4,331.2,513.1,331.1,512.7z"/>
<path opacity="0.4" fill="#010202" d="M328.4,503.1c-0.2-0.5,0.2-1.1,0.7-1.2l0,0c0.5-0.2,1.1,0.2,1.2,0.7l0,0
	c0.1,0.5-0.2,1.1-0.7,1.2l0,0c-0.1,0-0.2,0-0.3,0l0,0C329,503.8,328.6,503.5,328.4,503.1z"/>
<path opacity="0.4" fill="#010202" d="M325.7,493.5c-0.2-0.5,0.1-1.1,0.7-1.2l0,0c0.5-0.1,1.1,0.2,1.2,0.7l0,0
	c0.2,0.5-0.2,1.1-0.7,1.2l0,0c-0.1,0-0.2,0-0.3,0l0,0C326.2,494.2,325.8,493.9,325.7,493.5z"/>
<path opacity="0.4" fill="#010202" d="M322.8,483.9c-0.2-0.5,0.1-1.1,0.7-1.2l0,0c0.5-0.2,1.1,0.1,1.2,0.7l0,0
	c0.2,0.5-0.1,1.1-0.7,1.2l0,0c-0.1,0-0.2,0-0.3,0l0,0C323.4,484.6,323,484.3,322.8,483.9z"/>
<path opacity="0.4" fill="#010202" d="M319.9,474.3c-0.2-0.5,0.1-1.1,0.7-1.3l0,0c0.5-0.2,1.1,0.1,1.2,0.7l0,0
	c0.2,0.5-0.1,1.1-0.7,1.2l0,0c-0.1,0-0.2,0-0.3,0l0,0C320.4,475,320,474.8,319.9,474.3z"/>
<path opacity="0.4" fill="#010202" d="M316.9,464.8c-0.2-0.5,0.1-1.1,0.6-1.3l0,0c0.5-0.2,1.1,0.1,1.3,0.6l0,0
	c0.2,0.5-0.1,1.1-0.7,1.3l0,0c-0.1,0-0.2,0-0.3,0l0,0C317.4,465.5,317,465.2,316.9,464.8z"/>
<path opacity="0.4" fill="#010202" d="M313.7,455.3c-0.2-0.5,0.1-1.1,0.6-1.3l0,0c0.5-0.2,1.1,0.1,1.3,0.6l0,0
	c0.2,0.5-0.1,1.1-0.6,1.3l0,0c-0.1,0-0.2,0.1-0.3,0.1l0,0C314.3,456,313.9,455.8,313.7,455.3z"/>
<path opacity="0.4" fill="#010202" d="M310.5,445.9L310.5,445.9c-0.2-0.5,0.1-1.1,0.6-1.3l0,0c0.5-0.2,1.1,0.1,1.3,0.6l0,0
	c0.2,0.5-0.1,1.1-0.6,1.3l0,0c-0.1,0-0.2,0.1-0.3,0.1l0,0C311,446.6,310.6,446.3,310.5,445.9z"/>
<path opacity="0.4" fill="#010202" d="M307.2,436.5c-0.2-0.5,0.1-1.1,0.6-1.3l0,0c0.5-0.2,1.1,0.1,1.3,0.6l0,0
	c0.2,0.5-0.1,1.1-0.6,1.3l0,0c-0.1,0-0.2,0.1-0.3,0.1l0,0C307.7,437.1,307.3,436.9,307.2,436.5z"/>
<path opacity="0.4" fill="#010202" d="M303.7,427.1L303.7,427.1c-0.2-0.5,0.1-1.1,0.6-1.3l0,0c0.5-0.2,1.1,0.1,1.3,0.6l0,0l0,0l0,0
	c0.2,0.5-0.1,1.1-0.6,1.3l0,0c-0.1,0-0.2,0.1-0.4,0.1l0,0C304.3,427.7,303.9,427.5,303.7,427.1z"/>
<path opacity="0.4" fill="#010202" d="M300.2,417.7c-0.2-0.5,0.1-1.1,0.6-1.3l0,0c0.5-0.2,1.1,0.1,1.3,0.6l0,0l0,0l0,0
	c0.2,0.5-0.1,1.1-0.6,1.3l0,0c-0.1,0-0.2,0.1-0.4,0.1l0,0C300.8,418.4,300.4,418.1,300.2,417.7z"/>
<path opacity="0.4" fill="#010202" d="M296.6,408.4c-0.2-0.5,0-1.1,0.6-1.3l0,0c0.5-0.2,1.1,0,1.3,0.6l0,0c0.2,0.5-0.1,1.1-0.6,1.3
	l0,0c-0.1,0-0.2,0.1-0.4,0.1l0,0C297.1,409.1,296.8,408.8,296.6,408.4z"/>
<path opacity="0.4" fill="#010202" d="M292.9,399.2c-0.2-0.5,0-1.1,0.6-1.3l0,0c0.5-0.2,1.1,0,1.3,0.5l0,0l0,0l0,0
	c0.2,0.5,0,1.1-0.6,1.3l0,0c-0.1,0-0.2,0.1-0.4,0.1l0,0C293.4,399.8,293.1,399.5,292.9,399.2z"/>
<path opacity="0.4" fill="#010202" d="M289.1,390c-0.2-0.5,0-1.1,0.5-1.3l0,0c0.5-0.2,1.1,0,1.3,0.5l0,0l0,0l0,0
	c0.2,0.5,0,1.1-0.5,1.3l0,0c-0.1,0-0.3,0.1-0.4,0.1l0,0C289.7,390.6,289.3,390.3,289.1,390z"/>
<path opacity="0.4" fill="#010202" d="M285.3,380.8c-0.2-0.5,0-1.1,0.5-1.3l0,0c0.5-0.2,1.1,0,1.3,0.5l0,0l0,0l0,0
	c0.2,0.5,0,1.1-0.5,1.3l0,0c-0.1,0-0.3,0.1-0.4,0.1l0,0C285.8,381.4,285.4,381.2,285.3,380.8z"/>
<path opacity="0.4" fill="#010202" d="M281.3,371.7c-0.2-0.5,0-1.1,0.5-1.3l0,0c0.5-0.2,1.1,0,1.3,0.5l0,0c0.2,0.5,0,1.1-0.5,1.3
	l0,0c-0.1,0.1-0.3,0.1-0.4,0.1l0,0C281.8,372.3,281.5,372,281.3,371.7z"/>
<path opacity="0.4" fill="#010202" d="M277.2,362.6c-0.2-0.5,0-1.1,0.5-1.3l0,0c0.5-0.2,1.1,0,1.3,0.5l0,0l0,0l0,0
	c0.2,0.5,0,1.1-0.5,1.3l0,0c-0.1,0.1-0.3,0.1-0.4,0.1l0,0C277.8,363.2,277.4,363,277.2,362.6z"/>
<path opacity="0.4" fill="#010202" d="M273.1,353.5c-0.2-0.5,0-1.1,0.5-1.3l0,0c0.5-0.2,1.1,0,1.3,0.5l0,0l0,0l0,0
	c0.2,0.5,0,1.1-0.5,1.3l0,0c-0.1,0.1-0.3,0.1-0.4,0.1l0,0C273.6,354.1,273.3,353.9,273.1,353.5z"/>
<path opacity="0.4" fill="#010202" d="M268.8,344.5c-0.2-0.5,0-1.1,0.5-1.3l0,0c0.5-0.2,1.1,0,1.3,0.5l0,0c0,0,0,0,0,0l0,0
	c0.2,0.5,0,1.1-0.5,1.3l0,0c-0.1,0.1-0.3,0.1-0.4,0.1l0,0C269.4,345.1,269,344.9,268.8,344.5z"/>
<path opacity="0.4" fill="#010202" d="M264.5,335.6c-0.2-0.5,0-1.1,0.5-1.3l0,0c0.5-0.2,1.1,0,1.3,0.5l0,0c0,0,0,0,0,0l0,0
	c0.2,0.5,0,1.1-0.5,1.3l0,0c-0.1,0.1-0.3,0.1-0.4,0.1l0,0C265,336.1,264.7,335.9,264.5,335.6z"/>
<path opacity="0.4" fill="#010202" d="M260.1,326.7c-0.2-0.5,0-1.1,0.5-1.3l0,0c0.5-0.2,1.1,0,1.3,0.5l0,0c0.2,0.5,0.1,1.1-0.4,1.3
	l0,0c-0.1,0.1-0.3,0.1-0.4,0.1l0,0C260.6,327.2,260.3,327,260.1,326.7z"/>
<path opacity="0.4" fill="#010202" d="M255.6,317.8L255.6,317.8c-0.2-0.5-0.1-1.1,0.4-1.4l0,0c0.5-0.2,1.1-0.1,1.3,0.4l0,0l0,0l0,0
	c0.2,0.5,0.1,1.1-0.4,1.3l0,0c-0.2,0.1-0.3,0.1-0.5,0.1l0,0C256.1,318.3,255.8,318.1,255.6,317.8z"/>
<path opacity="0.4" fill="#010202" d="M251,309c-0.2-0.5-0.1-1.1,0.4-1.4l0,0c0.5-0.3,1.1-0.1,1.3,0.4l0,0c0.3,0.5,0.1,1.1-0.4,1.4
	l0,0c-0.1,0.1-0.3,0.1-0.5,0.1l0,0C251.5,309.5,251.2,309.3,251,309z"/>
<path opacity="0.4" fill="#010202" d="M246.3,300.2c-0.3-0.5-0.1-1.1,0.4-1.4l0,0c0.5-0.3,1.1-0.1,1.4,0.4l0,0
	c0.3,0.5,0.1,1.1-0.4,1.4l0,0c-0.2,0.1-0.3,0.1-0.5,0.1l0,0C246.8,300.7,246.5,300.5,246.3,300.2z"/>
<path opacity="0.4" fill="#010202" d="M241.5,291.4c-0.3-0.5-0.1-1.1,0.4-1.4l0,0c0.5-0.3,1.1-0.1,1.4,0.4l0,0
	c0.3,0.5,0.1,1.1-0.4,1.4l0,0c-0.1,0.1-0.3,0.1-0.5,0.1l0,0C242,291.9,241.7,291.8,241.5,291.4z"/>
<path opacity="0.4" fill="#010202" d="M236.7,282.7c-0.3-0.5-0.1-1.1,0.4-1.4l0,0c0.5-0.3,1.1-0.1,1.4,0.4l0,0l0,0l0,0
	c0.3,0.5,0.1,1.1-0.4,1.4l0,0c-0.2,0.1-0.3,0.1-0.5,0.1l0,0C237.2,283.2,236.8,283.1,236.7,282.7z"/>
<path opacity="0.4" fill="#010202" d="M231.7,274.1c-0.3-0.5-0.1-1.1,0.4-1.4l0,0c0.5-0.3,1.1-0.1,1.4,0.4l0,0
	c0.3,0.5,0.1,1.1-0.4,1.4l0,0c-0.2,0.1-0.3,0.1-0.5,0.1l0,0C232.2,274.6,231.9,274.4,231.7,274.1z"/>
<path opacity="0.4" fill="#010202" d="M226.7,265.5c-0.3-0.5-0.1-1.1,0.4-1.4l0,0c0.5-0.3,1.1-0.1,1.4,0.4l0,0
	c0.3,0.5,0.1,1.1-0.4,1.4l0,0c-0.2,0.1-0.3,0.1-0.5,0.1l0,0C227.2,266,226.9,265.8,226.7,265.5z"/>
<path opacity="0.4" fill="#010202" d="M221.6,256.9c-0.3-0.5-0.1-1.1,0.3-1.4l0,0c0.5-0.3,1.1-0.1,1.4,0.3l0,0
	c0.3,0.5,0.1,1.1-0.3,1.4l0,0c-0.2,0.1-0.3,0.1-0.5,0.1l0,0C222.1,257.4,221.7,257.3,221.6,256.9z"/>
<path opacity="0.4" fill="#010202" d="M216.3,248.5c-0.3-0.5-0.1-1.1,0.3-1.4l0,0c0.5-0.3,1.1-0.1,1.4,0.3l0,0
	c0.3,0.5,0.2,1.1-0.3,1.4l0,0c-0.2,0.1-0.4,0.2-0.5,0.2l0,0C216.9,248.9,216.5,248.8,216.3,248.5z"/>
<path opacity="0.4" fill="#010202" d="M211.1,240c-0.3-0.5-0.2-1.1,0.3-1.4l0,0c0.5-0.3,1.1-0.1,1.4,0.3l0,0l0,0l0,0
	c0.3,0.5,0.2,1.1-0.3,1.4l0,0c-0.2,0.1-0.4,0.2-0.5,0.2l0,0C211.6,240.5,211.2,240.3,211.1,240z"/>
<path opacity="0.4" fill="#010202" d="M205.7,231.6c-0.3-0.5-0.2-1.1,0.3-1.4l0,0c0.5-0.3,1.1-0.2,1.4,0.3l0,0
	c0.3,0.5,0.2,1.1-0.3,1.4l0,0c-0.2,0.1-0.4,0.2-0.5,0.2l0,0C206.2,232.1,205.9,231.9,205.7,231.6z"/>
<path opacity="0.4" fill="#010202" d="M200.2,223.3c-0.3-0.5-0.2-1.1,0.3-1.4l0,0c0.5-0.3,1.1-0.2,1.4,0.3l0,0l0,0l0,0
	c0.3,0.5,0.2,1.1-0.3,1.4l0,0c-0.2,0.1-0.4,0.2-0.6,0.2l0,0C200.7,223.7,200.4,223.6,200.2,223.3z"/>
<path opacity="0.4" fill="#010202" d="M194.7,215c-0.3-0.5-0.2-1.1,0.3-1.4l0,0c0.5-0.3,1.1-0.2,1.4,0.3l0,0
	c0.3,0.5,0.2,1.1-0.3,1.4l0,0c-0.2,0.1-0.4,0.2-0.6,0.2l0,0C195.2,215.4,194.9,215.3,194.7,215z"/>
<path opacity="0.4" fill="#010202" d="M189,206.8c-0.3-0.5-0.2-1.1,0.2-1.4l0,0c0.5-0.3,1.1-0.2,1.4,0.2l0,0
	c0.3,0.5,0.2,1.1-0.2,1.4l0,0c-0.2,0.1-0.4,0.2-0.6,0.2l0,0C189.5,207.2,189.2,207,189,206.8z"/>
<path opacity="0.4" fill="#010202" d="M183.3,198.6c-0.3-0.5-0.2-1.1,0.2-1.4l0,0c0.5-0.3,1.1-0.2,1.4,0.2l0,0l0,0l0,0
	c0.3,0.5,0.2,1.1-0.2,1.4l0,0c-0.2,0.1-0.4,0.2-0.6,0.2l0,0C183.8,199,183.5,198.9,183.3,198.6z"/>
<path opacity="0.4" fill="#010202" d="M177.5,190.5c-0.3-0.5-0.2-1.1,0.2-1.4l0,0c0.4-0.3,1.1-0.2,1.4,0.2l0,0l0,0l0,0
	c0.3,0.4,0.2,1.1-0.2,1.4l0,0c-0.2,0.1-0.4,0.2-0.6,0.2l0,0C178,190.9,177.7,190.7,177.5,190.5z"/>
<path opacity="0.4" fill="#010202" d="M171.7,182.4c-0.3-0.5-0.2-1.1,0.2-1.4l0,0c0.4-0.3,1.1-0.2,1.4,0.2l0,0
	c0.3,0.5,0.2,1.1-0.2,1.4l0,0c-0.2,0.1-0.4,0.2-0.6,0.2l0,0C172.2,182.8,171.9,182.7,171.7,182.4z"/>
<path opacity="0.4" fill="#010202" d="M165.7,174.4L165.7,174.4c-0.3-0.4-0.2-1.1,0.2-1.4l0,0c0.4-0.3,1.1-0.2,1.4,0.2l0,0
	c0.3,0.4,0.2,1.1-0.2,1.4l0,0c-0.2,0.1-0.4,0.2-0.6,0.2l0,0C166.2,174.8,165.9,174.7,165.7,174.4z"/>
<path opacity="0.4" fill="#010202" d="M159.7,166.5c-0.3-0.4-0.3-1.1,0.2-1.4l0,0c0.4-0.3,1.1-0.3,1.4,0.2l0,0
	c0.3,0.4,0.2,1.1-0.2,1.4l0,0c-0.2,0.1-0.4,0.2-0.6,0.2l0,0C160.2,166.9,159.9,166.7,159.7,166.5z"/>
<path opacity="0.4" fill="#010202" d="M153.6,158.6c-0.3-0.4-0.3-1.1,0.2-1.4l0,0c0.4-0.3,1.1-0.3,1.4,0.2l0,0
	c0.3,0.4,0.3,1.1-0.2,1.4l0,0c-0.2,0.1-0.4,0.2-0.6,0.2l0,0C154.1,159,153.8,158.8,153.6,158.6z"/>
<path opacity="0.4" fill="#010202" d="M147.4,150.8L147.4,150.8c-0.3-0.4-0.3-1.1,0.2-1.4l0,0c0.4-0.4,1.1-0.3,1.4,0.2l0,0
	c0.3,0.4,0.3,1.1-0.2,1.4l0,0c-0.2,0.1-0.4,0.2-0.6,0.2l0,0C147.9,151.1,147.6,151,147.4,150.8z"/>
<path opacity="0.4" fill="#010202" d="M141.1,143c-0.3-0.4-0.3-1.1,0.1-1.4l0,0c0.4-0.4,1.1-0.3,1.4,0.1l0,0l0,0l0,0
	c0.4,0.4,0.3,1.1-0.1,1.4l0,0c-0.2,0.2-0.4,0.2-0.6,0.2l0,0C141.6,143.4,141.3,143.2,141.1,143z"/>
<path opacity="0.4" fill="#010202" d="M134.8,135.3c-0.4-0.4-0.3-1,0.1-1.4l0,0c0.4-0.4,1-0.3,1.4,0.1l0,0l0,0l0,0
	c0.3,0.4,0.3,1.1-0.1,1.4l0,0c-0.2,0.2-0.4,0.2-0.6,0.2l0,0C135.3,135.7,135,135.5,134.8,135.3z"/>
<path opacity="0.4" fill="#010202" d="M128.3,127.7c-0.4-0.4-0.3-1.1,0.1-1.4l0,0c0.4-0.4,1-0.3,1.4,0.1l0,0c0.4,0.4,0.3,1-0.1,1.4
	l0,0c-0.2,0.2-0.4,0.2-0.6,0.2l0,0C128.8,128,128.5,127.9,128.3,127.7z"/>
<path opacity="0.4" fill="#010202" d="M121.8,120.1c-0.4-0.4-0.3-1,0.1-1.4l0,0c0.4-0.4,1-0.3,1.4,0.1l0,0l0,0l0,0
	c0.4,0.4,0.3,1.1-0.1,1.4l0,0c-0.2,0.2-0.4,0.2-0.7,0.2l0,0C122.3,120.4,122,120.3,121.8,120.1z"/>
<path opacity="0.4" fill="#010202" d="M115.3,112.6L115.3,112.6c-0.4-0.4-0.3-1,0.1-1.4l0,0c0.4-0.4,1-0.3,1.4,0.1l0,0l0,0l0,0
	c0.4,0.4,0.3,1.1-0.1,1.4l0,0c-0.2,0.2-0.4,0.2-0.7,0.2l0,0C115.7,112.9,115.5,112.8,115.3,112.6z"/>
<path opacity="0.4" fill="#010202" d="M108.6,105.1c-0.4-0.4-0.3-1.1,0.1-1.4l0,0c0.4-0.4,1-0.3,1.4,0.1l0,0c0.4,0.4,0.3,1-0.1,1.4
	l0,0c-0.2,0.2-0.4,0.3-0.7,0.3l0,0C109.1,105.5,108.8,105.4,108.6,105.1z"/>
<path opacity="0.4" fill="#010202" d="M101.9,97.8L101.9,97.8c-0.4-0.4-0.4-1,0.1-1.4l0,0c0.4-0.4,1-0.3,1.4,0.1l0,0c0,0,0,0,0,0
	l0,0c0.4,0.4,0.3,1-0.1,1.4l0,0c-0.2,0.2-0.4,0.3-0.7,0.3l0,0C102.4,98.1,102.1,98,101.9,97.8z"/>
<path opacity="0.4" fill="#010202" d="M95.1,90.4L95.1,90.4c-0.4-0.4-0.4-1,0-1.4l0,0c0.4-0.4,1-0.4,1.4,0.1l0,0
	c0.4,0.4,0.4,1,0,1.4l0,0c-0.2,0.2-0.4,0.3-0.7,0.3l0,0C95.6,90.8,95.3,90.7,95.1,90.4z"/>
<path opacity="0.4" fill="#010202" d="M88.2,83.2c-0.4-0.4-0.4-1,0-1.4l0,0c0.4-0.4,1-0.4,1.4,0l0,0l0,0l0,0c0.4,0.4,0.4,1,0,1.4
	l0,0c-0.2,0.2-0.4,0.3-0.7,0.3l0,0C88.7,83.5,88.4,83.4,88.2,83.2z"/>
<path opacity="0.4" fill="#010202" d="M81.3,76c-0.4-0.4-0.4-1,0-1.4l0,0c0.4-0.4,1-0.4,1.4,0l0,0c0.4,0.4,0.4,1,0,1.4l0,0
	c-0.2,0.2-0.4,0.3-0.7,0.3l0,0C81.7,76.3,81.5,76.2,81.3,76z"/>
<path opacity="0.4" fill="#010202" d="M74.3,68.9L74.3,68.9c-0.4-0.4-0.4-1,0-1.4l0,0c0.4-0.4,1-0.4,1.4,0l0,0c0.4,0.4,0.4,1,0,1.4
	l0,0c-0.2,0.2-0.4,0.3-0.7,0.3l0,0C74.7,69.2,74.5,69.1,74.3,68.9z"/>
<path opacity="0.4" fill="#010202" d="M67.2,61.9c-0.4-0.4-0.4-1,0-1.4l0,0c0.4-0.4,1-0.4,1.4,0l0,0l0,0l0,0c0.4,0.4,0.4,1,0,1.4
	l0,0c-0.2,0.2-0.4,0.3-0.7,0.3l0,0C67.6,62.2,67.4,62.1,67.2,61.9z"/>
<path opacity="0.4" fill="#010202" d="M60,54.9c-0.4-0.4-0.4-1,0-1.4l0,0c0.4-0.4,1-0.4,1.4,0l0,0c0.4,0.4,0.4,1,0,1.4l0,0
	c-0.2,0.2-0.5,0.3-0.7,0.3l0,0C60.5,55.2,60.2,55.1,60,54.9z"/>
<path opacity="0.4" fill="#010202" d="M52.8,48c-0.4-0.4-0.4-1,0-1.4l0,0c0.4-0.4,1-0.4,1.4,0l0,0l0,0l0,0c0.4,0.4,0.4,1,0,1.4l0,0
	c-0.2,0.2-0.5,0.3-0.7,0.3l0,0C53.3,48.3,53,48.2,52.8,48z"/>
<path opacity="0.4" fill="#010202" d="M45.5,41.2c-0.4-0.4-0.4-1-0.1-1.4l0,0c0.4-0.4,1-0.4,1.4-0.1l0,0c0.4,0.4,0.4,1,0,1.4l0,0
	c-0.2,0.2-0.5,0.3-0.7,0.3l0,0C46,41.4,45.7,41.4,45.5,41.2z"/>
<path opacity="0.4" fill="#010202" d="M38.2,34.4c-0.4-0.4-0.4-1-0.1-1.4l0,0c0.4-0.4,1-0.4,1.4-0.1l0,0c0.4,0.4,0.4,1,0.1,1.4l0,0
	c-0.2,0.2-0.5,0.3-0.7,0.3l0,0C38.6,34.7,38.4,34.6,38.2,34.4z"/>
<path opacity="0.4" fill="#010202" d="M30.7,27.7L30.7,27.7c-0.4-0.4-0.5-1-0.1-1.4l0,0c0.4-0.4,1-0.4,1.4-0.1l0,0
	c0.4,0.4,0.4,1,0.1,1.4l0,0c-0.2,0.2-0.5,0.3-0.7,0.3l0,0C31.2,28,30.9,27.9,30.7,27.7z"/>
<path opacity="0.4" fill="#010202" d="M23.2,21.1c-0.4-0.4-0.5-1-0.1-1.4l0,0c0.4-0.4,1-0.5,1.4-0.1l0,0c0.4,0.4,0.5,1,0.1,1.4l0,0
	c-0.2,0.2-0.5,0.3-0.8,0.3l0,0C23.7,21.4,23.4,21.3,23.2,21.1z"/>
<path opacity="0.4" fill="#010202" d="M15.7,14.6c-0.4-0.4-0.5-1-0.1-1.4l0,0c0.4-0.4,1-0.5,1.4-0.1l0,0c0.4,0.4,0.5,1,0.1,1.4l0,0
	c-0.2,0.2-0.5,0.4-0.8,0.4l0,0C16.1,14.8,15.9,14.8,15.7,14.6z"/>
<path opacity="0.4" fill="#010202" d="M8.1,8.2c-0.4-0.4-0.5-1-0.1-1.4l0,0c0.4-0.4,1-0.5,1.4-0.1l0,0C9.8,7,9.8,7.6,9.5,8l0,0
	C9.3,8.3,9,8.4,8.7,8.4l0,0C8.5,8.4,8.2,8.3,8.1,8.2z"/>
<path opacity="0.4" fill="#010202" d="M0.4,1.8c-0.4-0.4-0.5-1-0.1-1.4l0,0c0.4-0.4,1-0.5,1.4-0.1l0,0l0,0l0,0
	c0.4,0.4,0.5,1,0.1,1.4l0,0C1.6,1.9,1.3,2,1,2l0,0C0.8,2,0.5,1.9,0.4,1.8z"/>
<g>
	<path opacity="5.000000e-02" fill="#782953" d="M209.7,335c-56.3,0-101.9-45.6-101.9-101.9c0-56.3,45.6-101.9,101.9-101.9
		c56.3,0,101.9,45.6,101.9,101.9C311.5,289.4,265.9,335,209.7,335z M369.7,233.1c0,88.4-71.6,160-160,160c-88.4,0-160-71.6-160-160
		c0-88.4,71.6-160,160-160C298,73.1,369.7,144.7,369.7,233.1z M209.7,112c-66.9,0-121.1,54.2-121.1,121.1
		c0,66.9,54.2,121.1,121.1,121.1c66.9,0,121.1-54.2,121.1-121.1C330.7,166.2,276.5,112,209.7,112z"/>
	<g>
		<g>
			
				<line fill="none" stroke="#888888" stroke-width="2" stroke-linecap="round" stroke-miterlimit="10" x1="209.7" y1="123.1" x2="209.7" y2="123.1"/>
			
				<line fill="none" stroke="#888888" stroke-width="2" stroke-linecap="round" stroke-miterlimit="10" stroke-dasharray="0,10" x1="209.7" y1="133.1" x2="209.7" y2="158.1"/>
			
				<line fill="none" stroke="#888888" stroke-width="2" stroke-linecap="round" stroke-miterlimit="10" x1="209.7" y1="163.1" x2="209.7" y2="163.1"/>
		</g>
	</g>
	<g>
		<g>
			
				<line fill="none" stroke="#888888" stroke-width="2" stroke-linecap="round" stroke-miterlimit="10" x1="285.6" y1="157.2" x2="285.6" y2="157.2"/>
			
				<line fill="none" stroke="#888888" stroke-width="2" stroke-linecap="round" stroke-miterlimit="10" stroke-dasharray="0,9.6716" x1="278.7" y1="164" x2="261.6" y2="181.1"/>
			
				<line fill="none" stroke="#888888" stroke-width="2" stroke-linecap="round" stroke-miterlimit="10" x1="258.2" y1="184.5" x2="258.2" y2="184.5"/>
		</g>
	</g>
	<g>
		<g>
			
				<line fill="none" stroke="#888888" stroke-width="2" stroke-linecap="round" stroke-miterlimit="10" x1="133.7" y1="309" x2="133.7" y2="309"/>
			
				<line fill="none" stroke="#888888" stroke-width="2" stroke-linecap="round" stroke-miterlimit="10" stroke-dasharray="0,9.6716" x1="140.6" y1="302.2" x2="157.7" y2="285.1"/>
			
				<line fill="none" stroke="#888888" stroke-width="2" stroke-linecap="round" stroke-miterlimit="10" x1="161.1" y1="281.7" x2="161.1" y2="281.7"/>
		</g>
	</g>
	<g>
		<path fill="#DD4815" d="M269.7,233.1c0,33.1-26.9,60-60,60c-33.1,0-60-26.9-60-60c0-33.1,26.9-60,60-60
			C242.8,173.1,269.7,199.9,269.7,233.1z"/>
		<g>
			<path fill="#FFFFFF" d="M168.9,225.1c-4.4,0-8,3.6-8,8c0,4.4,3.6,8,8,8c4.4,0,8-3.6,8-8C176.9,228.7,173.3,225.1,168.9,225.1z"/>
			<path fill="#FFFFFF" d="M226,261.5c-3.8,2.2-5.1,7.1-2.9,10.9c2.2,3.8,7.1,5.1,10.9,2.9c3.8-2.2,5.1-7.1,2.9-10.9
				C234.8,260.6,229.9,259.3,226,261.5z"/>
			<path fill="#FFFFFF" d="M186.3,233.1c0-7.9,3.9-14.9,10-19.1l-5.9-9.8c-7,4.7-12.2,11.8-14.4,20.2c2.5,2.1,4.1,5.2,4.1,8.7
				c0,3.5-1.6,6.7-4.1,8.7c2.2,8.4,7.4,15.5,14.4,20.2l5.9-9.8C190.2,248,186.3,241,186.3,233.1z"/>
			<path fill="#FFFFFF" d="M209.7,209.7c12.2,0,22.3,9.4,23.3,21.3l11.4-0.2c-0.6-8.8-4.4-16.7-10.3-22.6c-3,1.2-6.6,1-9.6-0.8
				c-3-1.8-5-4.7-5.5-7.9c-3-0.8-6.1-1.3-9.3-1.3c-5.5,0-10.8,1.3-15.4,3.6l5.6,10C202.8,210.5,206.1,209.7,209.7,209.7z"/>
			<path fill="#FFFFFF" d="M209.7,256.5c-3.5,0-6.9-0.8-9.9-2.2l-5.6,10c4.6,2.3,9.9,3.6,15.4,3.6c3.2,0,6.3-0.4,9.3-1.3
				c0.5-3.2,2.4-6.2,5.5-7.9c3-1.8,6.6-1.9,9.6-0.8c5.9-5.8,9.8-13.7,10.3-22.6l-11.4-0.2C231.9,247.1,221.9,256.5,209.7,256.5z"/>
			<circle fill="#FFFFFF" cx="230" cy="197.7" r="8"/>
		</g>
	</g>
	<g>
		<g>
			
				<line fill="none" stroke="#888888" stroke-width="2" stroke-linecap="round" stroke-miterlimit="10" x1="209.7" y1="303.1" x2="209.7" y2="303.1"/>
			
				<line fill="none" stroke="#888888" stroke-width="2" stroke-linecap="round" stroke-miterlimit="10" stroke-dasharray="0,10" x1="209.7" y1="313.1" x2="209.7" y2="338.1"/>
			
				<line fill="none" stroke="#888888" stroke-width="2" stroke-linecap="round" stroke-miterlimit="10" x1="209.7" y1="343.1" x2="209.7" y2="343.1"/>
		</g>
	</g>
	<g>
		<g>
			
				<line fill="none" stroke="#888888" stroke-width="2" stroke-linecap="round" stroke-miterlimit="10" x1="319.7" y1="233.1" x2="319.7" y2="233.1"/>
			
				<line fill="none" stroke="#888888" stroke-width="2" stroke-linecap="round" stroke-miterlimit="10" stroke-dasharray="0,10" x1="309.7" y1="233.1" x2="284.7" y2="233.1"/>
			
				<line fill="none" stroke="#888888" stroke-width="2" stroke-linecap="round" stroke-miterlimit="10" x1="279.7" y1="233.1" x2="279.7" y2="233.1"/>
		</g>
	</g>
	<path fill-rule="evenodd" clip-rule="evenodd" fill="#5E2750" d="M239.7,73.1c0,16.6-13.4,30-30,30s-30-13.4-30-30s13.4-30,30-30
		S239.7,56.5,239.7,73.1z M213.3,57.5c10.8,0,12,0,12,7.2v14.4v2.4h-31.2v-2.4V64.7c0-7.2,1.2-7.2,12-7.2H213.3z M196.5,64.7v14.4
		h26.4V64.7c0-4.8,0-4.8-9.6-4.8h-7.2C196.5,59.9,196.5,59.9,196.5,64.7z M227.6,82.7c0,0.2,0,0.4,0,0.6c0,3-0.4,3-4.8,3h-26.4
		c-4.4,0-4.8,0-4.8-3c0-0.2,0-0.4,0-0.6H227.6z M206.7,83.9c-0.3,0-0.6,0.3-0.5,0.7c0,0.3,0.3,0.6,0.7,0.5h5.6c0,0,0,0,0,0
		c0.3,0,0.6-0.3,0.6-0.6c0-0.3-0.3-0.6-0.6-0.6h-5.6C206.8,83.9,206.8,83.9,206.7,83.9L206.7,83.9z"/>
	<path fill-rule="evenodd" clip-rule="evenodd" fill="#5E2750" d="M350.9,121.8c0,16.6-13.4,30-30,30s-30-13.4-30-30s13.4-30,30-30
		S350.9,105.2,350.9,121.8z M333.6,110.4v22.8c0,7.6-1.3,7.6-12.7,7.6c-11.4,0-12.7,0-12.7-7.6v-22.8c0-7.6,1.3-7.6,12.7-7.6
		C332.3,102.8,333.6,102.8,333.6,110.4z M317.8,104.1c-0.3,0-0.6,0.3-0.6,0.7c0,0.3,0.3,0.6,0.7,0.6h5.9c0,0,0,0,0,0
		c0.3,0,0.6-0.3,0.6-0.6c0-0.3-0.3-0.6-0.6-0.6H318C317.9,104.1,317.9,104.1,317.8,104.1L317.8,104.1z M310.8,111.7v19
		c0,5.1,0,5.1,10.1,5.1s10.1,0,10.1-5.1v-19c0-5.1,0-5.1-10.1-5.1S310.8,106.6,310.8,111.7z"/>
	<path fill="#5E2750" d="M128.4,344.4c0,16.6-13.4,30-30,30c-16.6,0-30-13.4-30-30c0-16.6,13.4-30,30-30
		C114.9,314.4,128.4,327.8,128.4,344.4z M120.9,344.3c0-4.5-3.5-8.2-7.9-8.4c2-4,0.5-8.8-3.3-11.1c-3.9-2.2-8.8-1-11.2,2.6
		c-2.4-3.7-7.4-4.9-11.2-2.6c-3.9,2.2-5.3,7.1-3.3,11.1c-4.4,0.3-7.9,3.9-7.9,8.4c0,4.7,3.8,8.4,8.4,8.4h28.1
		C117.1,352.8,120.9,349,120.9,344.3z"/>
	<path fill-rule="evenodd" clip-rule="evenodd" fill="#5E2750" d="M399.7,233.1c0,16.6-13.4,30-30,30s-30-13.4-30-30s13.4-30,30-30
		S399.7,216.5,399.7,233.1z M381.1,247.8h-22.8c-7.6,0-7.6-3.3-7.6-14.7c0-11.4,0-14.7,7.6-14.7h22.8c7.6,0,7.6,3.3,7.6,14.7
		C388.7,244.5,388.7,247.8,381.1,247.8z M387.4,230c0-0.3-0.3-0.6-0.7-0.6s-0.6,0.3-0.6,0.7v5.9c0,0,0,0,0,0c0,0.3,0.3,0.6,0.6,0.6
		c0.3,0,0.6-0.3,0.6-0.6v-5.9C387.4,230.1,387.4,230,387.4,230L387.4,230z M379.8,221h-20c-5.1,0-5.1,2-5.1,12.1s0,12.1,5.1,12.1h20
		c5.1,0,5.1-2,5.1-12.1S384.9,221,379.8,221z"/>
	<path fill="#5E2750" d="M224.6,367.1c-14.3-8.3-32.7-3.4-41,11c-8.3,14.3-3.4,32.7,11,41c14.3,8.3,32.7,3.4,41-11
		C243.9,393.7,239,375.4,224.6,367.1z M220.9,406.6c0,2.5-2,4.5-4.5,4.5h-13.5c-2.5,0-4.5-2-4.5-4.5v-27c0-2.5,2-4.5,4.5-4.5h13.5
		c2.5,0,4.5,2,4.5,4.5V406.6L220.9,406.6z M214.6,385.8h-10c-1,0-1.8-0.8-1.8-1.7c0-0.9,0.8-1.7,1.8-1.7h10c1,0,1.8,0.8,1.8,1.7
		C216.4,385,215.6,385.8,214.6,385.8L214.6,385.8z M214.6,381.3h-10c-1,0-1.8-0.8-1.8-1.7c0-0.9,0.8-1.7,1.8-1.7h10
		c1,0,1.8,0.8,1.8,1.7C216.4,380.5,215.6,381.3,214.6,381.3L214.6,381.3z M214.6,390.3h-10c-1,0-1.8-0.8-1.8-1.7s0.8-1.7,1.8-1.7h10
		c1,0,1.8,0.8,1.8,1.7C216.4,389.5,215.6,390.3,214.6,390.3L214.6,390.3z M207.4,402.1c0,1.2-1,2.2-2.2,2.2c-1.2,0-2.2-1-2.2-2.2
		c0-1.2,1-2.3,2.2-2.3C206.4,399.8,207.4,400.8,207.4,402.1z"/>
</g>
</svg>
