<?xml version="1.0" encoding="utf-8"?>
<!-- Generator: Adobe Illustrator 18.1.1, SVG Export Plug-In . SVG Version: 6.00 Build 0)  -->
<svg version="1.1" id="Layer_1" xmlns="http://www.w3.org/2000/svg" xmlns:xlink="http://www.w3.org/1999/xlink" x="0px" y="0px"
	 width="595.3px" height="530.3px" viewBox="0 158.3 595.3 530.3" enable-background="new 0 158.3 595.3 530.3"
	 xml:space="preserve">
<g>
	<path fill="#F7F7F7" d="M413.8,633h-279c-46.3,0-83.7-37.4-83.7-83.7c0-44.4,34.7-80.8,78.5-83.5c-19.6-39.3-5.4-87.4,33.1-109.8
		s87.4-10.3,111.6,26.3c24.2-36.6,73.2-48.6,111.6-26.3s52.7,70.5,33.1,109.8c43.8,2.7,78.5,39.1,78.5,83.5
		C497.5,595.6,459.9,633,413.8,633z"/>
</g>
<g>
	<path fill="#DE4815" d="M483.7,542.9H111.6C50,542.9,0,492.9,0,431.3C0,372,46.3,323.4,104.8,319.9c-26.3-52.5-7.4-116.8,44-146.5
		c51.5-29.6,116.6-13.8,148.8,34.9c32.2-48.8,97.4-64.7,148.8-34.9s70.3,94,44,146.3c58.5,3.5,104.8,52.1,104.8,111.4
		C595.3,492.9,545.3,542.9,483.7,542.9z"/>
</g>
<g>
	<path fill="#5E2750" d="M524.4,688.6h-186c-30.8,0-55.8-25-55.8-55.8c0-29.8,23.1-53.9,52.3-55.6c-13-26.3-3.7-58.3,22.1-73.2
		c25.6-14.9,58.3-6.8,74.4,17.6c16.1-24.4,48.8-32.2,74.4-17.6c25.6,14.9,35.1,46.9,22.1,73.2c29.1,1.9,52.3,26,52.3,55.6
		C580.2,663.6,555.2,688.6,524.4,688.6z"/>
</g>
<g id="_x31_8">
	<path fill="#FFFFFF" d="M244.6,353.3c0-32,26.1-58.1,58.1-58.1c32,0,58.1,26.1,58.1,58.1h19.4c0-42.7-34.8-77.5-77.5-77.5
		c-42.7,0-77.5,34.7-77.5,77.5v19.4v9.7v0.3h0c0.1,42.6,34.8,77.2,77.5,77.2c42.7,0,77.5-34.8,77.5-77.5v-9.7H244.6V353.3z
		 M302.6,387.2c8,0,14.5,6.5,14.5,14.5c0,6.3-4,11.7-9.7,13.7v25c0,2.7-2.2,4.8-4.8,4.8c-2.7,0-4.8-2.2-4.8-4.8v-25
		c-5.6-2-9.7-7.4-9.7-13.7C288.1,393.7,294.6,387.2,302.6,387.2z"/>
</g>
</svg>
