<?xml version="1.0" encoding="utf-8"?>
<!-- Generator: Adobe Illustrator 16.0.0, SVG Export Plug-In . SVG Version: 6.00 Build 0)  -->
<!DOCTYPE svg PUBLIC "-//W3C//DTD SVG 1.1//EN" "http://www.w3.org/Graphics/SVG/1.1/DTD/svg11.dtd">
<svg version="1.1" id="premier" xmlns="http://www.w3.org/2000/svg" xmlns:xlink="http://www.w3.org/1999/xlink" x="0px" y="0px"
	 width="396.851px" height="481.89px" viewBox="0 0 396.851 481.89" enable-background="new 0 0 396.851 481.89"
	 xml:space="preserve">
<g>
	<g>
		<path fill="#2C001E" d="M304.725,381.259c0,9.393-7.615,17.008-17.008,17.008H109.134c-9.393,0-17.008-7.615-17.008-17.008
			V109.134c0-9.393,7.615-17.008,17.008-17.008h178.583c9.393,0,17.008,7.615,17.008,17.008V381.259z"/>
	</g>
	<g>
		<path fill="#FFFFFF" d="M138.113,262.053c3.432,0,6.069,0.652,7.914,1.957c1.845,1.302,2.768,3.249,2.768,5.832
			c0,1.41-0.253,2.616-0.758,3.613c-0.506,1-1.233,1.81-2.187,2.433c-0.951,0.623-2.108,1.075-3.472,1.357
			c-1.363,0.281-2.902,0.423-4.617,0.423h-2.715v9.059h-3.419v-24.074c0.963-0.235,2.039-0.394,3.226-0.479
			C136.039,262.092,137.127,262.053,138.113,262.053z M138.396,265.049c-1.457,0-2.572,0.036-3.349,0.105v9.589h2.573
			c1.175,0,2.232-0.078,3.173-0.229c0.939-0.153,1.732-0.413,2.38-0.776c0.646-0.364,1.146-0.862,1.498-1.498
			c0.353-0.633,0.528-1.446,0.528-2.434c0-0.938-0.183-1.714-0.547-2.324c-0.364-0.613-0.857-1.098-1.479-1.465
			c-0.623-0.364-1.347-0.617-2.168-0.758C140.182,265.119,139.312,265.049,138.396,265.049z"/>
		<path fill="#FFFFFF" d="M159.387,268.01c0.282,0,0.605,0.017,0.97,0.052c0.364,0.036,0.723,0.082,1.075,0.142
			c0.353,0.059,0.676,0.118,0.969,0.177c0.295,0.059,0.512,0.111,0.652,0.157l-0.563,2.855c-0.259-0.092-0.688-0.206-1.287-0.334
			c-0.599-0.128-1.369-0.193-2.309-0.193c-0.611,0-1.217,0.065-1.815,0.193c-0.6,0.128-0.992,0.216-1.181,0.266v15.402h-3.278
			v-17.554c0.775-0.281,1.738-0.547,2.891-0.793C156.661,268.134,157.953,268.01,159.387,268.01z"/>
		<path fill="#FFFFFF" d="M164.843,277.596c0-1.619,0.235-3.036,0.706-4.245c0.47-1.21,1.093-2.217,1.868-3.014
			c0.775-0.8,1.668-1.399,2.679-1.8c1.01-0.399,2.045-0.6,3.102-0.6c2.468,0,4.359,0.771,5.676,2.312
			c1.315,1.537,1.974,3.881,1.974,7.032c0,0.141,0,0.321,0,0.544c0,0.227-0.012,0.43-0.035,0.619h-12.549
			c0.141,1.902,0.693,3.348,1.657,4.335c0.963,0.986,2.467,1.481,4.512,1.481c1.151,0,2.12-0.102,2.908-0.302
			c0.787-0.2,1.38-0.394,1.78-0.58l0.458,2.747c-0.4,0.214-1.099,0.437-2.098,0.673c-0.999,0.232-2.133,0.351-3.401,0.351
			c-1.599,0-2.979-0.239-4.142-0.722c-1.163-0.481-2.122-1.147-2.873-1.993c-0.753-0.846-1.311-1.849-1.675-3.013
			S164.843,278.986,164.843,277.596z M177.428,275.799c0.022-1.479-0.347-2.694-1.11-3.648c-0.765-0.951-1.815-1.427-3.155-1.427
			c-0.752,0-1.415,0.148-1.991,0.439c-0.576,0.295-1.063,0.676-1.463,1.147c-0.399,0.469-0.711,1.01-0.934,1.62
			c-0.225,0.613-0.371,1.235-0.441,1.868H177.428z"/>
		<path fill="#FFFFFF" d="M185.362,268.924c0.752-0.187,1.745-0.387,2.979-0.597c1.233-0.213,2.661-0.317,4.282-0.317
			c1.176,0,2.162,0.157,2.962,0.476c0.798,0.317,1.469,0.779,2.009,1.393c0.164-0.117,0.424-0.281,0.775-0.495
			c0.353-0.21,0.787-0.416,1.305-0.616c0.516-0.199,1.092-0.373,1.727-0.527s1.316-0.229,2.045-0.229
			c1.41,0,2.562,0.206,3.455,0.616c0.893,0.413,1.592,0.993,2.097,1.744c0.505,0.754,0.847,1.646,1.022,2.679
			c0.176,1.036,0.264,2.163,0.264,3.387v10.291h-3.277v-9.587c0-1.082-0.054-2.01-0.159-2.786c-0.105-0.774-0.306-1.42-0.599-1.938
			c-0.295-0.519-0.693-0.898-1.198-1.147c-0.506-0.246-1.158-0.367-1.957-0.367c-1.104,0-2.016,0.145-2.731,0.439
			c-0.717,0.295-1.205,0.557-1.463,0.793c0.188,0.609,0.328,1.282,0.423,2.01c0.094,0.728,0.141,1.492,0.141,2.292v10.291h-3.278
			v-9.587c0-1.082-0.059-2.01-0.176-2.786c-0.118-0.774-0.323-1.42-0.617-1.938c-0.294-0.519-0.693-0.898-1.198-1.147
			c-0.506-0.246-1.146-0.367-1.922-0.367c-0.329,0-0.682,0.01-1.057,0.032c-0.377,0.026-0.734,0.053-1.076,0.089
			c-0.341,0.036-0.651,0.078-0.934,0.125c-0.282,0.045-0.47,0.082-0.564,0.104v15.475h-3.277V268.924z"/>
		<path fill="#FFFFFF" d="M217.14,265.085c-0.588,0-1.088-0.196-1.498-0.583c-0.412-0.388-0.616-0.912-0.616-1.567
			c0-0.659,0.204-1.184,0.616-1.57c0.41-0.387,0.91-0.58,1.498-0.58c0.587,0,1.087,0.193,1.498,0.58s0.616,0.911,0.616,1.57
			c0,0.655-0.205,1.18-0.616,1.567C218.227,264.889,217.727,265.085,217.14,265.085z M218.796,286.727h-3.277v-18.33h3.277V286.727z
			"/>
		<path fill="#FFFFFF" d="M223.23,277.596c0-1.619,0.235-3.036,0.705-4.245c0.47-1.21,1.093-2.217,1.868-3.014
			c0.775-0.8,1.668-1.399,2.68-1.8c1.01-0.399,2.044-0.6,3.102-0.6c2.468,0,4.359,0.771,5.676,2.312
			c1.315,1.537,1.974,3.881,1.974,7.032c0,0.141,0,0.321,0,0.544c0,0.227-0.013,0.43-0.035,0.619h-12.55
			c0.142,1.902,0.693,3.348,1.657,4.335c0.963,0.986,2.467,1.481,4.513,1.481c1.15,0,2.12-0.102,2.907-0.302s1.381-0.394,1.78-0.58
			l0.458,2.747c-0.399,0.214-1.099,0.437-2.097,0.673c-0.999,0.232-2.133,0.351-3.401,0.351c-1.6,0-2.979-0.239-4.143-0.722
			c-1.163-0.481-2.121-1.147-2.873-1.993s-1.311-1.849-1.675-3.013S223.23,278.986,223.23,277.596z M235.814,275.799
			c0.023-1.479-0.347-2.694-1.109-3.648c-0.765-0.951-1.815-1.427-3.156-1.427c-0.752,0-1.415,0.148-1.991,0.439
			c-0.576,0.295-1.063,0.676-1.462,1.147c-0.4,0.469-0.712,1.01-0.935,1.62c-0.224,0.613-0.37,1.235-0.441,1.868H235.814z"/>
		<path fill="#FFFFFF" d="M250.517,268.01c0.282,0,0.605,0.017,0.97,0.052c0.364,0.036,0.723,0.082,1.075,0.142
			c0.353,0.059,0.676,0.118,0.969,0.177c0.295,0.059,0.512,0.111,0.652,0.157l-0.563,2.855c-0.259-0.092-0.688-0.206-1.287-0.334
			c-0.599-0.128-1.369-0.193-2.309-0.193c-0.611,0-1.216,0.065-1.815,0.193s-0.992,0.216-1.181,0.266v15.402h-3.278v-17.554
			c0.775-0.281,1.738-0.547,2.891-0.793C247.791,268.134,249.083,268.01,250.517,268.01z"/>
		<path fill="#FFFFFF" d="M139.383,325.757c-1.48,0-2.778-0.233-3.896-0.705c-1.116-0.469-2.056-1.128-2.82-1.974
			c-0.764-0.846-1.333-1.85-1.708-3.013c-0.377-1.164-0.565-2.449-0.565-3.862c0-1.41,0.206-2.701,0.617-3.875
			c0.411-1.177,0.993-2.193,1.745-3.049c0.752-0.859,1.675-1.528,2.767-2.01c1.093-0.482,2.31-0.725,3.648-0.725
			c0.823,0,1.646,0.072,2.468,0.213s1.61,0.364,2.361,0.669l-0.74,2.786c-0.493-0.235-1.062-0.423-1.709-0.563
			s-1.334-0.213-2.062-0.213c-1.833,0-3.237,0.577-4.212,1.728c-0.976,1.15-1.463,2.833-1.463,5.039c0,0.99,0.111,1.895,0.335,2.715
			c0.223,0.822,0.575,1.527,1.058,2.117c0.48,0.587,1.098,1.04,1.851,1.354c0.751,0.318,1.668,0.479,2.75,0.479
			c0.868,0,1.656-0.082,2.361-0.249c0.704-0.164,1.257-0.338,1.656-0.528l0.459,2.751c-0.188,0.118-0.459,0.229-0.812,0.334
			c-0.353,0.105-0.753,0.2-1.198,0.282c-0.447,0.082-0.922,0.15-1.428,0.21C140.34,325.727,139.853,325.757,139.383,325.757z"/>
		<path fill="#FFFFFF" d="M153.105,325.688c-2.021-0.049-3.455-0.481-4.301-1.305s-1.269-2.102-1.269-3.843v-21.995l3.277-0.563
			v22.031c0,0.541,0.047,0.986,0.142,1.338c0.094,0.354,0.246,0.636,0.459,0.846c0.211,0.213,0.493,0.37,0.846,0.475
			c0.353,0.108,0.786,0.197,1.304,0.266L153.105,325.688z"/>
		<path fill="#FFFFFF" d="M173.007,316.17c0,1.456-0.211,2.774-0.634,3.947c-0.423,1.174-1.017,2.187-1.78,3.033
			c-0.764,0.846-1.675,1.498-2.731,1.954c-1.058,0.459-2.209,0.688-3.455,0.688s-2.396-0.229-3.454-0.688
			c-1.058-0.456-1.969-1.108-2.732-1.954c-0.764-0.847-1.356-1.859-1.779-3.033c-0.424-1.173-0.635-2.491-0.635-3.947
			c0-1.433,0.211-2.744,0.635-3.931c0.423-1.187,1.016-2.203,1.779-3.049s1.675-1.498,2.732-1.957s2.208-0.688,3.454-0.688
			s2.397,0.229,3.455,0.688c1.057,0.459,1.968,1.111,2.731,1.957s1.357,1.862,1.78,3.049S173.007,314.738,173.007,316.17z
			 M169.589,316.17c0-2.068-0.465-3.708-1.393-4.917c-0.929-1.21-2.191-1.816-3.79-1.816s-2.861,0.606-3.789,1.816
			c-0.929,1.209-1.393,2.849-1.393,4.917c0,2.069,0.464,3.708,1.393,4.918c0.928,1.21,2.19,1.813,3.789,1.813
			s2.861-0.604,3.79-1.813C169.124,319.878,169.589,318.24,169.589,316.17z"/>
		<path fill="#FFFFFF" d="M192.063,324.806c-0.753,0.187-1.745,0.387-2.979,0.6c-1.234,0.21-2.661,0.318-4.283,0.318
			c-1.41,0-2.597-0.207-3.561-0.619c-0.964-0.41-1.739-0.99-2.326-1.744c-0.588-0.751-1.011-1.64-1.269-2.662
			c-0.259-1.02-0.388-2.154-0.388-3.4v-10.294h3.277v9.589c0,2.233,0.353,3.83,1.059,4.793c0.704,0.965,1.891,1.446,3.56,1.446
			c0.353,0,0.717-0.013,1.093-0.036c0.376-0.022,0.729-0.053,1.058-0.088c0.329-0.037,0.629-0.069,0.899-0.105
			c0.27-0.036,0.463-0.075,0.581-0.125v-15.474h3.278V324.806z"/>
		<path fill="#FFFFFF" d="M209.462,298.545l3.278-0.563v26.824c-0.752,0.21-1.715,0.423-2.891,0.636
			c-1.175,0.21-2.525,0.315-4.054,0.315c-1.409,0-2.679-0.224-3.806-0.669c-1.129-0.446-2.093-1.082-2.892-1.905
			c-0.799-0.819-1.416-1.826-1.851-3.013s-0.652-2.521-0.652-4c0-1.409,0.183-2.701,0.547-3.878
			c0.364-1.174,0.899-2.187,1.604-3.033c0.705-0.846,1.569-1.501,2.591-1.974c1.022-0.469,2.191-0.704,3.508-0.704
			c1.058,0,1.991,0.141,2.802,0.423c0.812,0.281,1.416,0.554,1.815,0.812V298.545z M209.462,310.882
			c-0.399-0.328-0.975-0.646-1.727-0.95c-0.753-0.306-1.574-0.459-2.468-0.459c-0.94,0-1.745,0.17-2.415,0.511
			c-0.669,0.342-1.215,0.811-1.639,1.41c-0.423,0.6-0.729,1.312-0.917,2.131c-0.188,0.823-0.281,1.705-0.281,2.646
			c0,2.138,0.528,3.79,1.587,4.951c1.057,1.163,2.467,1.747,4.229,1.747c0.893,0,1.639-0.043,2.238-0.125s1.062-0.17,1.392-0.266
			V310.882z"/>
		<path fill="#FFFFFF" d="M147.561,354.811c0,1.39-0.182,2.668-0.546,3.842c-0.364,1.177-0.899,2.187-1.604,3.033
			c-0.705,0.846-1.569,1.505-2.591,1.974c-1.023,0.472-2.192,0.704-3.508,0.704c-1.058,0-1.992-0.141-2.803-0.423
			c-0.811-0.281-1.415-0.551-1.815-0.81v7.331h-3.277v-24.287c0.775-0.187,1.745-0.394,2.907-0.616
			c1.163-0.224,2.509-0.335,4.036-0.335c1.411,0,2.68,0.224,3.808,0.669c1.127,0.446,2.091,1.082,2.891,1.905
			c0.798,0.822,1.415,1.826,1.851,3.013C147.344,351.998,147.561,353.333,147.561,354.811z M144.142,354.811
			c0-2.138-0.529-3.784-1.586-4.935c-1.058-1.15-2.468-1.728-4.23-1.728c-0.986,0-1.757,0.036-2.309,0.108
			c-0.553,0.068-0.993,0.15-1.322,0.246v11.562c0.4,0.328,0.976,0.646,1.728,0.951s1.574,0.459,2.467,0.459
			c0.94,0,1.745-0.171,2.415-0.512c0.671-0.341,1.216-0.812,1.64-1.41c0.423-0.6,0.729-1.305,0.916-2.114
			C144.048,356.626,144.142,355.751,144.142,354.811z"/>
		<path fill="#FFFFFF" d="M158.029,345.152c1.315,0,2.427,0.174,3.331,0.512c0.905,0.341,1.634,0.823,2.187,1.446
			c0.551,0.623,0.945,1.363,1.181,2.223c0.234,0.855,0.353,1.803,0.353,2.836v11.455c-0.282,0.049-0.677,0.114-1.182,0.196
			s-1.075,0.157-1.709,0.229c-0.635,0.069-1.322,0.135-2.062,0.193c-0.74,0.056-1.476,0.089-2.203,0.089
			c-1.034,0-1.986-0.108-2.855-0.318c-0.869-0.213-1.621-0.547-2.256-1.006c-0.634-0.456-1.128-1.062-1.48-1.813
			c-0.353-0.754-0.529-1.659-0.529-2.715c0-1.01,0.206-1.882,0.617-2.609s0.97-1.314,1.675-1.764
			c0.705-0.446,1.527-0.773,2.467-0.987c0.94-0.209,1.927-0.314,2.962-0.314c0.328,0,0.669,0.017,1.021,0.053
			c0.353,0.032,0.688,0.082,1.005,0.141c0.317,0.06,0.594,0.111,0.829,0.157c0.234,0.05,0.398,0.082,0.493,0.105v-0.915
			c0-0.541-0.06-1.075-0.177-1.604c-0.117-0.53-0.329-1-0.634-1.409c-0.306-0.413-0.723-0.741-1.252-0.99
			c-0.528-0.246-1.216-0.367-2.062-0.367c-1.081,0-2.027,0.075-2.838,0.227c-0.811,0.153-1.416,0.314-1.815,0.479l-0.388-2.715
			c0.423-0.19,1.128-0.37,2.114-0.548C155.809,345.241,156.878,345.152,158.029,345.152z M158.312,361.581
			c0.775,0,1.463-0.02,2.062-0.052c0.599-0.036,1.098-0.103,1.498-0.194v-5.465c-0.235-0.118-0.617-0.216-1.146-0.298
			c-0.529-0.082-1.17-0.125-1.922-0.125c-0.493,0-1.016,0.036-1.568,0.104c-0.553,0.072-1.058,0.22-1.516,0.443
			c-0.458,0.223-0.841,0.527-1.146,0.914c-0.306,0.387-0.458,0.898-0.458,1.534c0,1.174,0.375,1.99,1.127,2.449
			C155.997,361.351,157.019,361.581,158.312,361.581z"/>
		<path fill="#FFFFFF" d="M177.135,345.224c0.282,0,0.605,0.017,0.97,0.053s0.723,0.082,1.075,0.141
			c0.353,0.06,0.676,0.118,0.969,0.178c0.295,0.059,0.512,0.111,0.652,0.157l-0.563,2.855c-0.259-0.092-0.688-0.206-1.287-0.335
			c-0.599-0.127-1.369-0.193-2.309-0.193c-0.611,0-1.217,0.066-1.815,0.193c-0.6,0.129-0.993,0.217-1.182,0.266v15.402h-3.277
			v-17.553c0.775-0.281,1.738-0.547,2.89-0.793C174.409,345.349,175.701,345.224,177.135,345.224z"/>
		<path fill="#FFFFFF" d="M187.251,345.611h6.944v2.751h-6.944v8.459c0,0.918,0.07,1.675,0.211,2.274
			c0.142,0.601,0.353,1.069,0.636,1.41c0.281,0.341,0.634,0.58,1.057,0.722c0.423,0.141,0.917,0.213,1.48,0.213
			c0.987,0,1.78-0.111,2.38-0.335c0.599-0.223,1.016-0.383,1.251-0.475l0.635,2.711c-0.33,0.167-0.905,0.37-1.728,0.619
			c-0.822,0.246-1.763,0.371-2.82,0.371c-1.245,0-2.273-0.161-3.084-0.479c-0.811-0.315-1.463-0.794-1.956-1.427
			c-0.494-0.636-0.841-1.416-1.04-2.344c-0.2-0.928-0.3-2.003-0.3-3.226V340.5l3.278-0.564V345.611z"/>
		<path fill="#FFFFFF" d="M198.299,346.139c0.752-0.187,1.75-0.387,2.996-0.597c1.246-0.213,2.679-0.318,4.301-0.318
			c1.457,0,2.667,0.207,3.631,0.617c0.963,0.412,1.732,0.986,2.309,1.728c0.575,0.741,0.981,1.626,1.216,2.662
			c0.234,1.032,0.353,2.173,0.353,3.419v10.291h-3.278v-9.586c0-1.128-0.076-2.092-0.229-2.892c-0.153-0.8-0.405-1.446-0.758-1.938
			c-0.353-0.495-0.823-0.853-1.41-1.075c-0.588-0.223-1.316-0.335-2.186-0.335c-0.353,0-0.718,0.011-1.093,0.033
			c-0.376,0.026-0.734,0.053-1.075,0.089c-0.341,0.035-0.646,0.078-0.917,0.124s-0.464,0.082-0.581,0.105v15.474h-3.278V346.139z"/>
		<path fill="#FFFFFF" d="M217.399,354.811c0-1.62,0.235-3.036,0.706-4.246c0.47-1.21,1.092-2.216,1.867-3.013
			c0.775-0.8,1.668-1.4,2.68-1.8c1.01-0.4,2.044-0.601,3.102-0.601c2.468,0,4.359,0.771,5.676,2.312
			c1.315,1.538,1.974,3.882,1.974,7.032c0,0.142,0,0.321,0,0.545c0,0.226-0.013,0.43-0.035,0.619h-12.549
			c0.141,1.901,0.693,3.348,1.657,4.334c0.963,0.987,2.467,1.482,4.512,1.482c1.15,0,2.12-0.102,2.908-0.302
			c0.786-0.2,1.38-0.394,1.78-0.58l0.458,2.747c-0.4,0.213-1.1,0.436-2.098,0.672c-0.999,0.233-2.133,0.351-3.401,0.351
			c-1.6,0-2.979-0.239-4.143-0.721c-1.163-0.482-2.121-1.147-2.873-1.993s-1.311-1.85-1.674-3.014
			C217.581,357.473,217.399,356.201,217.399,354.811z M229.983,353.014c0.023-1.479-0.347-2.695-1.109-3.649
			c-0.765-0.95-1.815-1.426-3.155-1.426c-0.753,0-1.416,0.147-1.992,0.439c-0.576,0.295-1.062,0.676-1.462,1.147
			c-0.4,0.469-0.711,1.01-0.935,1.619c-0.224,0.613-0.37,1.236-0.44,1.869H229.983z"/>
		<path fill="#FFFFFF" d="M244.687,345.224c0.282,0,0.605,0.017,0.97,0.053s0.724,0.082,1.075,0.141
			c0.353,0.06,0.676,0.118,0.969,0.178c0.295,0.059,0.512,0.111,0.653,0.157l-0.564,2.855c-0.259-0.092-0.688-0.206-1.287-0.335
			c-0.599-0.127-1.369-0.193-2.309-0.193c-0.611,0-1.216,0.066-1.815,0.193c-0.599,0.129-0.992,0.217-1.181,0.266v15.402h-3.278
			v-17.553c0.775-0.281,1.739-0.547,2.891-0.793S243.253,345.224,244.687,345.224z"/>
	</g>
	<g>
		<path fill="#FFFFFF" d="M248.029,231.023h-99.207c-16.439,0-29.767-13.416-29.767-29.964c0-15.93,12.343-28.943,27.923-29.905
			c-6.967-14.06-1.938-31.331,11.766-39.296c13.699-7.961,31.067-3.709,39.682,9.392c8.618-13.101,25.986-17.353,39.688-9.39
			s18.727,25.232,11.762,39.294c15.584,0.962,27.921,13.976,27.921,29.905C277.796,217.607,264.469,231.023,248.029,231.023z"/>
		<g>
			<path fill="#DD4814" d="M230.174,183.403c0,17.528-14.216,31.744-31.748,31.744c-17.531,0-31.748-14.216-31.748-31.744
				c0-17.539,14.217-31.751,31.748-31.751C215.958,151.652,230.174,165.864,230.174,183.403z"/>
			<path fill="#FFFFFF" d="M178.624,179.582c-2.107,0-3.81,1.708-3.81,3.817c0,2.1,1.702,3.811,3.81,3.811
				c2.11,0,3.814-1.711,3.814-3.811C182.438,181.29,180.734,179.582,178.624,179.582z M205.859,196.92
				c-1.825,1.045-2.445,3.382-1.396,5.201c1.052,1.827,3.384,2.45,5.207,1.4c1.825-1.054,2.453-3.384,1.4-5.209
				C210.016,196.489,207.684,195.865,205.859,196.92z M186.914,183.399c0-3.772,1.865-7.105,4.732-9.12l-2.785-4.675
				c-3.338,2.229-5.824,5.641-6.857,9.635c1.21,0.983,1.975,2.478,1.975,4.16c0,1.669-0.765,3.164-1.975,4.151
				c1.033,3.991,3.52,7.4,6.857,9.631l2.785-4.673C188.779,190.496,186.914,187.167,186.914,183.399z M198.053,172.25
				c5.822,0,10.596,4.463,11.098,10.162l5.436-0.088c-0.269-4.2-2.104-7.973-4.922-10.745c-1.454,0.544-3.129,0.467-4.578-0.373
				c-1.445-0.838-2.357-2.244-2.605-3.779c-1.41-0.388-2.895-0.603-4.428-0.603c-2.637,0-5.129,0.62-7.34,1.717l2.649,4.748
				C194.787,172.624,196.377,172.25,198.053,172.25z M198.053,194.534c-1.676,0-3.266-0.368-4.69-1.034l-2.649,4.747
				c2.211,1.101,4.703,1.715,7.34,1.715c1.533,0,3.018-0.207,4.428-0.599c0.248-1.535,1.16-2.941,2.605-3.783
				c1.453-0.838,3.124-0.917,4.578-0.364c2.818-2.779,4.653-6.551,4.922-10.755l-5.436-0.075
				C208.648,190.077,203.875,194.534,198.053,194.534z M205.859,169.871c1.824,1.05,4.156,0.428,5.208-1.398
				c1.055-1.817,0.429-4.153-1.396-5.205c-1.823-1.053-4.155-0.428-5.207,1.396C203.414,166.487,204.034,168.819,205.859,169.871z"
				/>
		</g>
	</g>
</g>
</svg>
