<?xml version="1.0" encoding="UTF-8"?>
<!-- Generator: Adobe Illustrator 17.0.2, SVG Export Plug-In . SVG Version: 6.00 Build 0)  -->
<!DOCTYPE svg PUBLIC "-//W3C//DTD SVG 1.1//EN" "http://www.w3.org/Graphics/SVG/1.1/DTD/svg11.dtd">
<svg version="1.1" id="Layer_1" xmlns="http://www.w3.org/2000/svg" xmlns:xlink="http://www.w3.org/1999/xlink" x="0px" y="0px" width="179px" height="89px" viewBox="0 0 179 89" enable-background="new 0 0 179 89" xml:space="preserve">
<g id="icon-social-google">
	<path fill="#AEA79F" d="M47.446,11.84c-0.009,0.244-0.015,0.487-0.015,0.73c0,4.31,2.264,10.686,7.78,10.686   c1.602,0,3.246-0.406,4.301-1.609c1.203-1.379,1.675-3.194,1.675-4.122c0-4.634-2.687-11.843-8.007-11.843   c-0.367,0-0.74,0.047-1.11,0.124C50.2,7.526,48.632,9.567,47.446,11.84z"/>
	<path fill="#AEA79F" d="M80.938,5.013v6.626h5.429C85.002,9.089,83.153,6.838,80.938,5.013z"/>
	<path fill="#AEA79F" d="M57.492,34.453c-0.511-0.066-0.832-0.067-1.47-0.067c-0.566,0-3.879,0.125-6.542,0.971   c3.783,4.942,9.611,8.234,16.223,8.606c0.093-0.232,0.2-0.459,0.195-0.955C65.862,39.719,62.369,37.93,57.492,34.453z"/>
	<path fill="#AEA79F" d="M51.979,25.826c-2.869,0-5.228-1.08-6.979-2.51c0.213,3.6,1.29,6.964,3.028,9.893   c2.621-0.672,5.579-0.509,7.286-0.625c-0.899-1.161-1.924-2.382-1.924-4.375c0-1.094,0.32-1.739,0.64-2.512   C53.324,25.76,52.622,25.826,51.979,25.826z"/>
	<path fill="#AEA79F" d="M80.938,15.052v8.204h-3.486v-8.204H69.32v-3.413h8.132V3.506h1.414C75.433,1.291,71.347,0,66.958,0   c-4.433,0-8.556,1.315-12.009,3.571c0.518-0.035,1.027-0.056,1.521-0.065h13.553l-3.599,2.905h-3.93   c1.574,1.365,3.923,3.805,3.923,8.152c0,4.762-2.51,7.019-5.204,9.139c-0.833,0.835-1.795,1.739-1.795,3.157   c0,1.414,0.962,2.186,1.666,2.767l2.31,1.798c2.821,2.382,6.507,5.142,6.507,9.583c0,1.056-0.114,2.009-0.408,2.844   C80.448,42.593,88.958,33.292,88.958,22c0-2.429-0.399-4.763-1.126-6.948H80.938z"/>
</g>
<path fill="#AEA79F" d="M157.001,36.008c-7.737,0-14.009-6.27-14.009-14.009c0-7.737,6.272-14.008,14.009-14.008  s14.008,6.271,14.008,14.008C171.009,29.739,164.738,36.008,157.001,36.008z M179,22c0,12.15-9.85,22-22,22c-12.151,0-22-9.85-22-22  c0-12.151,9.849-22,22-22C169.15,0,179,9.849,179,22z M157,5.352c-9.195,0-16.648,7.454-16.648,16.648  c0,9.196,7.453,16.648,16.648,16.648c9.196,0,16.648-7.452,16.648-16.648C173.649,12.806,166.196,5.352,157,5.352z"/>
<g id="icon-social-facebook">
	<path fill="#AEA79F" d="M112,0C99.85,0,90,9.85,90,22s9.85,22,22,22c0.382,0,0.761-0.01,1.138-0.029V27.802H108v-6.851h5.138V15.26   c0-4.301,2.925-8.26,9.331-8.26c2.594,0,4.496,0.25,4.496,0.25l-0.143,6.851c0,0-1.951-0.018-4.085-0.018   c-2.31,0-2.747,1.07-2.747,2.837v4.032H127l-0.303,6.851h-6.708v14.696C128.188,39.3,134,31.331,134,22C134,9.85,124.15,0,112,0z"/>
</g>
<g id="icon-social-twitter">
	<path fill="#AEA79F" d="M44,22c0,12.15-9.85,22-22,22S0,34.15,0,22S9.85,0,22,0S44,9.85,44,22z M26.009,11.74   c-1.947,0.59-3.82,3.217-3.233,6.189c-6.461-0.389-9.315-3.848-11.031-5.504c-1.749,3.085,0.045,6.082,1.611,7.053   c-0.827,0.045-1.827-0.312-2.323-0.622c-0.189,2.846,2.132,4.818,4.107,5.329c-0.631,0.188-1.226,0.214-2.243,0.062   c0.866,2.862,3.192,3.628,4.925,3.754c-2.231,1.934-4.91,2.356-7.823,2.214c7.553,4.617,15.18,1.776,18.893-1.847   c3.117-3.043,4.511-7.599,4.559-11.675c0.714-0.579,2.156-1.807,2.548-2.768c-0.569,0.219-1.695,0.739-2.869,0.786   c0.968-0.633,2.076-1.902,2.192-2.895c-1.071,0.583-2.311,1.088-3.372,1.249C29.949,11.135,28,11.136,26.009,11.74L26.009,11.74z"/>
</g>
<g id="icon-social-google_2_">
	<path fill="#DD4813" d="M47.446,56.84c-0.009,0.244-0.015,0.487-0.015,0.73c0,4.31,2.264,10.686,7.78,10.686   c1.602,0,3.246-0.406,4.301-1.609c1.203-1.379,1.675-3.194,1.675-4.122c0-4.634-2.687-11.843-8.007-11.843   c-0.367,0-0.74,0.047-1.11,0.124C50.2,52.526,48.632,54.567,47.446,56.84z"/>
	<path fill="#DD4813" d="M80.938,50.013v6.626h5.429C85.002,54.089,83.153,51.838,80.938,50.013z"/>
	<path fill="#DD4813" d="M57.492,79.453c-0.511-0.066-0.832-0.067-1.47-0.067c-0.566,0-3.879,0.125-6.542,0.971   c3.783,4.942,9.611,8.234,16.223,8.606c0.093-0.232,0.2-0.459,0.195-0.955C65.862,84.719,62.369,82.93,57.492,79.453z"/>
	<path fill="#DD4813" d="M51.979,70.826c-2.869,0-5.228-1.08-6.979-2.51c0.213,3.6,1.29,6.964,3.028,9.893   c2.621-0.672,5.579-0.509,7.286-0.625c-0.899-1.161-1.924-2.382-1.924-4.375c0-1.094,0.32-1.739,0.64-2.512   C53.324,70.76,52.622,70.826,51.979,70.826z"/>
	<path fill="#DD4813" d="M80.938,60.052v8.204h-3.486v-8.204H69.32v-3.413h8.132v-8.133h1.414C75.433,46.291,71.347,45,66.958,45   c-4.433,0-8.556,1.315-12.009,3.571c0.518-0.035,1.027-0.056,1.521-0.065h13.553l-3.599,2.905h-3.93   c1.574,1.365,3.923,3.805,3.923,8.152c0,4.762-2.51,7.019-5.204,9.139c-0.833,0.835-1.795,1.739-1.795,3.157   c0,1.414,0.962,2.186,1.666,2.767l2.31,1.798c2.821,2.382,6.507,5.142,6.507,9.583c0,1.056-0.114,2.009-0.408,2.844   C80.448,87.593,88.958,78.292,88.958,67c0-2.429-0.399-4.763-1.126-6.948H80.938z"/>
</g>
<path fill="#DD4813" d="M157.001,81.008c-7.737,0-14.009-6.27-14.009-14.009c0-7.737,6.272-14.008,14.009-14.008  s14.008,6.271,14.008,14.008C171.009,74.739,164.738,81.008,157.001,81.008z M179,67c0,12.15-9.85,22-22,22c-12.151,0-22-9.85-22-22  c0-12.151,9.849-22,22-22C169.15,45,179,54.849,179,67z M157,50.352c-9.195,0-16.648,7.454-16.648,16.648  c0,9.196,7.453,16.648,16.648,16.648c9.196,0,16.648-7.452,16.648-16.648C173.649,57.806,166.196,50.352,157,50.352z"/>
<g id="icon-social-facebook_2_">
	<path fill="#DD4813" d="M112,45c-12.15,0-22,9.85-22,22s9.85,22,22,22c0.382,0,0.761-0.01,1.138-0.029V72.802H108v-6.851h5.138   V60.26c0-4.301,2.925-8.26,9.331-8.26c2.594,0,4.496,0.25,4.496,0.25l-0.143,6.851c0,0-1.951-0.018-4.085-0.018   c-2.31,0-2.747,1.07-2.747,2.837v4.032H127l-0.303,6.851h-6.708v14.696C128.188,84.3,134,76.331,134,67C134,54.85,124.15,45,112,45   z"/>
</g>
<g id="icon-social-twitter_2_">
	<path fill="#DD4813" d="M44,67c0,12.15-9.85,22-22,22S0,79.15,0,67s9.85-22,22-22S44,54.85,44,67z M26.009,56.74   c-1.947,0.59-3.82,3.217-3.233,6.189c-6.461-0.389-9.315-3.848-11.031-5.504c-1.749,3.085,0.045,6.082,1.611,7.053   c-0.827,0.045-1.827-0.312-2.323-0.622c-0.189,2.846,2.132,4.818,4.107,5.329c-0.631,0.188-1.226,0.214-2.243,0.062   c0.866,2.862,3.192,3.628,4.925,3.754c-2.231,1.934-4.91,2.356-7.823,2.214c7.553,4.617,15.18,1.776,18.893-1.847   c3.117-3.043,4.511-7.599,4.559-11.675c0.714-0.579,2.156-1.807,2.548-2.768c-0.569,0.219-1.695,0.739-2.869,0.786   c0.968-0.633,2.076-1.902,2.192-2.895c-1.071,0.583-2.311,1.088-3.372,1.249C29.949,56.135,28,56.136,26.009,56.74L26.009,56.74z"/>
</g>
</svg>