<?xml version="1.0" encoding="utf-8"?>
<!-- Generator: Adobe Illustrator 17.0.2, SVG Export Plug-In . SVG Version: 6.00 Build 0)  -->
<!DOCTYPE svg PUBLIC "-//W3C//DTD SVG 1.1//EN" "http://www.w3.org/Graphics/SVG/1.1/DTD/svg11.dtd">
<svg version="1.1" id="Layer_1" xmlns="http://www.w3.org/2000/svg" xmlns:xlink="http://www.w3.org/1999/xlink" x="0px" y="0px"
	 width="60px" height="60px" viewBox="0 0 60 60" enable-background="new 0 0 60 60" xml:space="preserve">
<g id="BK">
</g>
<g id="Comp">
	<path fill-rule="evenodd" clip-rule="evenodd" fill="#5E2750" d="M60,30c0,16.569-13.431,30-30,30S0,46.569,0,30S13.431,0,30,0
		S60,13.431,60,30z M33.6,14.4c10.8,0,12,0,12,7.2V36v2.4H14.4V36V21.6c0-7.2,1.2-7.2,12-7.2C26.4,14.4,33.6,14.4,33.6,14.4z
		 M16.8,21.6V36h26.4V21.6c0-4.8,0-4.8-9.6-4.8h-7.2C16.8,16.8,16.8,16.8,16.8,21.6z M47.987,39.6C47.994,39.795,48,39.972,48,40.2
		c0,3-0.4,3-4.8,3H16.8c-4.4,0-4.8,0-4.8-3c0-0.225,0.007-0.407,0.012-0.6C12.012,39.6,47.987,39.6,47.987,39.6z M27.075,40.8
		c-0.331,0.035-0.572,0.331-0.537,0.663c0.035,0.331,0.331,0.572,0.663,0.537h5.6c0.006,0,0.011,0,0.017,0
		c0.331-0.005,0.596-0.277,0.592-0.608c-0.005-0.331-0.277-0.596-0.608-0.592h-5.6C27.158,40.796,27.117,40.796,27.075,40.8
		L27.075,40.8z"/>
</g>
<g id="Grid" display="none">
	<g id="Grid_1_" display="inline">
	</g>
</g>
<g id="Labels">
</g>
</svg>
