<?xml version="1.0" encoding="utf-8"?>
<!-- Generator: Adobe Illustrator 18.0.0, SVG Export Plug-In . SVG Version: 6.00 Build 0)  -->
<!DOCTYPE svg PUBLIC "-//W3C//DTD SVG 1.1//EN" "http://www.w3.org/Graphics/SVG/1.1/DTD/svg11.dtd">
<svg version="1.1" id="Layer_1" xmlns="http://www.w3.org/2000/svg" xmlns:xlink="http://www.w3.org/1999/xlink" x="0px" y="0px"
	 viewBox="0 0 100 100" enable-background="new 0 0 100 100" xml:space="preserve">
<g>
	<rect opacity="0" fill="#888888" width="100" height="100"/>
	<path fill="#888888" d="M95.4,84.3L84.1,73c-1.4-1.4-3.4-2.3-5.4-2.3c-0.6,0-1.2,0.1-1.8,0.3l-4-4c5.8-7,9.3-16,9.3-25.8
		c0-22.4-18.2-40.6-40.5-40.6S1.1,18.7,1.1,41.1s18.2,40.6,40.5,40.6c9.8,0,18.8-3.5,25.8-9.3l4,4c-0.6,2.6,0.1,5.4,2,7.3L84.7,95
		c5.2,5.5,6.3,4.7,10.9,0.2C100.2,90.5,100.9,89.7,95.4,84.3z M41.6,73.7c-17.9,0-32.5-14.6-32.5-32.6S23.7,8.5,41.6,8.5
		s32.5,14.6,32.5,32.6S59.5,73.7,41.6,73.7z"/>
	<path fill="#888888" d="M41.6,19.4c-12,0-21.7,9.8-21.7,21.7c0,12,9.8,21.7,21.7,21.7c3.8,0,7.6-1,10.9-2.9
		c0.8-0.5,1.4-1.4,1.4-2.4l0-5.6h-1.4c-0.8,0-1.4-0.6-1.4-1.4c0-0.8,0.6-1.4,1.4-1.4h1.4v-5.4h6.8c1.5,0,2.6-1.1,2.7-2.6
		c0-0.1,0-0.1,0-0.2C63.3,29.1,53.6,19.4,41.6,19.4z M51.1,41.2c-3.7,0-6.8-3-6.8-6.8c0-1.5,0.5-2.9,1.4-4.1H33.4
		c-2.2,0-4.1,1.8-4.1,4.1c0,2.2,1.8,4.1,4.1,4.1v2.7c-3.7,0-6.8-3-6.8-6.8c0-3.7,3-6.8,6.8-6.8h17.7c3.7,0,6.8,3,6.8,6.8
		S54.8,41.2,51.1,41.2z M51.1,30.3c-2.2,0-4.1,1.8-4.1,4.1s1.8,4.1,4.1,4.1c2.2,0,4.1-1.8,4.1-4.1S53.3,30.3,51.1,30.3z M51.1,35.7
		c-0.8,0-1.4-0.6-1.4-1.4c0-0.8,0.6-1.4,1.4-1.4c0.7,0,1.4,0.6,1.4,1.4C52.5,35.1,51.9,35.7,51.1,35.7z"/>
</g>
</svg>
