<?xml version="1.0" encoding="utf-8"?>
<!-- Generator: Adobe Illustrator 18.0.0, SVG Export Plug-In . SVG Version: 6.00 Build 0)  -->
<!DOCTYPE svg PUBLIC "-//W3C//DTD SVG 1.1//EN" "http://www.w3.org/Graphics/SVG/1.1/DTD/svg11.dtd">
<svg version="1.1" id="Layer_1" xmlns="http://www.w3.org/2000/svg" xmlns:xlink="http://www.w3.org/1999/xlink" x="0px" y="0px"
	 viewBox="0 0 379 407.4" enable-background="new 0 0 379 407.4" xml:space="preserve">
<g>
	<circle opacity="0" fill-rule="evenodd" clip-rule="evenodd" fill="#888888" cx="216" cy="35" r="35"/>
	<circle opacity="0" fill-rule="evenodd" clip-rule="evenodd" fill="#888888" cx="88" cy="88" r="35"/>
	<circle opacity="0" fill-rule="evenodd" clip-rule="evenodd" fill="#888888" cx="35" cy="216" r="35"/>
	<circle opacity="0" fill-rule="evenodd" clip-rule="evenodd" fill="#888888" cx="88" cy="344" r="35"/>
	<circle opacity="0" fill-rule="evenodd" clip-rule="evenodd" fill="#888888" cx="344" cy="88" r="35"/>
	<g>
		<g>
			
				<line fill="none" stroke="#888888" stroke-width="2" stroke-linecap="round" stroke-miterlimit="10" x1="216" y1="88" x2="216" y2="88"/>
			
				<line fill="none" stroke="#888888" stroke-width="2" stroke-linecap="round" stroke-miterlimit="10" stroke-dasharray="0,10" x1="216" y1="98" x2="216" y2="113"/>
			
				<line fill="none" stroke="#888888" stroke-width="2" stroke-linecap="round" stroke-miterlimit="10" x1="216" y1="118" x2="216" y2="118"/>
		</g>
	</g>
	<g>
		<g>
			
				<line fill="none" stroke="#888888" stroke-width="2" stroke-linecap="round" stroke-miterlimit="10" x1="125.5" y1="125.5" x2="125.5" y2="125.5"/>
			
				<line fill="none" stroke="#888888" stroke-width="2" stroke-linecap="round" stroke-miterlimit="10" stroke-dasharray="0,10" x1="132.6" y1="132.6" x2="143.2" y2="143.2"/>
			
				<line fill="none" stroke="#888888" stroke-width="2" stroke-linecap="round" stroke-miterlimit="10" x1="146.7" y1="146.7" x2="146.7" y2="146.7"/>
		</g>
	</g>
	<g>
		<g>
			
				<line fill="none" stroke="#888888" stroke-width="2" stroke-linecap="round" stroke-miterlimit="10" x1="88" y1="216" x2="88" y2="216"/>
			
				<line fill="none" stroke="#888888" stroke-width="2" stroke-linecap="round" stroke-miterlimit="10" stroke-dasharray="0,10" x1="98" y1="216" x2="113" y2="216"/>
			
				<line fill="none" stroke="#888888" stroke-width="2" stroke-linecap="round" stroke-miterlimit="10" x1="118" y1="216" x2="118" y2="216"/>
		</g>
	</g>
	<g>
		<g>
			
				<line fill="none" stroke="#888888" stroke-width="2" stroke-linecap="round" stroke-miterlimit="10" x1="125.5" y1="306.5" x2="125.5" y2="306.5"/>
			
				<line fill="none" stroke="#888888" stroke-width="2" stroke-linecap="round" stroke-miterlimit="10" stroke-dasharray="0,10" x1="132.6" y1="299.4" x2="143.2" y2="288.8"/>
			
				<line fill="none" stroke="#888888" stroke-width="2" stroke-linecap="round" stroke-miterlimit="10" x1="146.7" y1="285.3" x2="146.7" y2="285.3"/>
		</g>
	</g>
	<g>
		<g>
			
				<line fill="none" stroke="#888888" stroke-width="2" stroke-linecap="round" stroke-miterlimit="10" x1="306.5" y1="125.5" x2="306.5" y2="125.5"/>
			
				<line fill="none" stroke="#888888" stroke-width="2" stroke-linecap="round" stroke-miterlimit="10" stroke-dasharray="0,10" x1="299.4" y1="132.6" x2="288.8" y2="143.2"/>
			
				<line fill="none" stroke="#888888" stroke-width="2" stroke-linecap="round" stroke-miterlimit="10" x1="285.3" y1="146.7" x2="285.3" y2="146.7"/>
		</g>
	</g>
	<path fill="#DD4815" d="M216,136c-44.1,0-80,35.9-80,80c0,44.1,35.9,80,80,80c14,0,27.9-3.7,40-10.7c3.1-1.8,5-5.1,5-8.7
		c0,0,0-20.6,0-20.6h-5.1c-2.8,0-5-2.2-5-5c0-2.8,2.2-5,5-5h5.1v-20h25c5.3,0,9.7-4.2,10-9.5c0-0.2,0-0.4,0-0.6
		C296,171.9,260.1,136,216,136z M250.9,216.2c-13.8,0-25-11.2-25-25c0-5.6,1.9-10.8,5-15h-45.1c-8.3,0-15,6.7-15,15
		c0,8.3,6.7,15,15,15v10c-13.8,0-25-11.2-25-25c0-13.8,11.2-25,25-25h65.1c13.8,0,25,11.2,25,25C275.9,205,264.7,216.2,250.9,216.2z
		 M250.9,176.2c-8.3,0-15,6.7-15,15s6.7,15,15,15c8.3,0,15-6.7,15-15S259.2,176.2,250.9,176.2z M251.1,195.9c-2.8,0-5-2.2-5-5
		s2.2-5,5-5c2.8,0,5,2.2,5,5S253.9,195.9,251.1,195.9z"/>
	<g>
		<path fill="#5E2750" d="M88,379c-19.3,0-35-15.7-35-35c0-19.3,15.7-35,35-35s35,15.7,35,35C123,363.3,107.3,379,88,379"/>
		<path fill="#5E2750" d="M48.7,346.5c0.8,12.6,7.6,23.7,17.5,30.3l0,0l-24.3,14l6.4-23.9l-23.9-6.4L48.7,346.5L48.7,346.5z"/>
		<path fill="#5E2750" d="M70.5,379.3c5.3,2.6,11.2,4.1,17.5,4.1c6.3,0,12.2-1.5,17.5-4.1l0,0v28.2L88,389.9l-17.5,17.5L70.5,379.3
			L70.5,379.3z"/>
	</g>
	<g>
		<path fill="#5E2750" d="M31.9,219.7c0.9,0.9,2,1.3,3.1,1.3c1.1,0,2.2-0.4,3.1-1.3l7.8-7.8v15.1H24.1v-15.1L31.9,219.7z
			 M52.5,185.7c-1.4-0.8-3-0.8-4.4,0c-1.4,0.8-2.2,2.2-2.2,3.8v13.2l-7.8-7.8c-1.7-1.7-4.5-1.7-6.2,0l-7.9,7.9v-13.3
			c0-1.6-0.8-3-2.2-3.8c-1.4-0.8-3-0.8-4.4,0C6.7,191.9,0,203.5,0,216c0,19.3,15.7,35,35,35s35-15.7,35-35
			C70,203.6,63.3,191.9,52.5,185.7"/>
	</g>
	<path fill-rule="evenodd" clip-rule="evenodd" fill="#888888" d="M251,35c0,19.3-15.7,35-35,35s-35-15.7-35-35s15.7-35,35-35
		S251,15.7,251,35z M220.2,16.8c12.6,0,14,0,14,8.4V42v2.8h-36.4V42V25.2c0-8.4,1.4-8.4,14-8.4H220.2z M200.6,25.2V42h30.8V25.2
		c0-5.6,0-5.6-11.2-5.6h-8.4C200.6,19.6,200.6,19.6,200.6,25.2z M237,46.2c0,0.2,0,0.4,0,0.7c0,3.5-0.5,3.5-5.6,3.5h-30.8
		c-5.1,0-5.6,0-5.6-3.5c0-0.3,0-0.5,0-0.7H237z M212.6,47.6c-0.4,0-0.7,0.4-0.6,0.8c0,0.4,0.4,0.7,0.8,0.6h6.5c0,0,0,0,0,0
		c0.4,0,0.7-0.3,0.7-0.7c0-0.4-0.3-0.7-0.7-0.7h-6.5C212.7,47.6,212.6,47.6,212.6,47.6L212.6,47.6z"/>
	<path fill-rule="evenodd" clip-rule="evenodd" fill="#888888" d="M379,88c0,19.3-15.7,35-35,35c-19.3,0-35-15.7-35-35
		s15.7-35,35-35C363.3,53,379,68.7,379,88z M358.8,74.7v26.6c0,8.9-1.5,8.9-14.8,8.9c-13.3,0-14.8,0-14.8-8.9V74.7
		c0-8.9,1.5-8.9,14.8-8.9C357.3,65.8,358.8,65.8,358.8,74.7z M340.4,67.3c-0.4,0-0.7,0.4-0.7,0.8c0,0.4,0.4,0.7,0.8,0.7h6.9
		c0,0,0,0,0,0c0.4,0,0.7-0.3,0.7-0.7c0-0.4-0.3-0.7-0.7-0.7h-6.9C340.5,67.3,340.4,67.3,340.4,67.3L340.4,67.3z M332.2,76.2v22.2
		c0,5.9,0,5.9,11.8,5.9c11.8,0,11.8,0,11.8-5.9V76.2c0-5.9,0-5.9-11.8-5.9C332.2,70.3,332.2,70.3,332.2,76.2z"/>
	<path fill="#888888" d="M123,88c0,19.3-15.7,35-35,35c-19.3,0-35-15.7-35-35s15.7-35,35-35C107.3,53,123,68.7,123,88z M114.3,88
		c0-5.2-4.1-9.5-9.2-9.8c2.3-4.6,0.6-10.3-3.9-12.9C96.6,62.6,90.9,64,88,68.3c-2.8-4.3-8.6-5.7-13.1-3.1c-4.5,2.6-6.2,8.3-3.9,12.9
		c-5.2,0.3-9.2,4.6-9.2,9.8c0,5.4,4.4,9.8,9.8,9.8h32.8C109.9,97.8,114.3,93.4,114.3,88z"/>
</g>
</svg>
